<svg xmlns="http://www.w3.org/2000/svg" viewBox="0.00 293.04 595.28 344.41" width="595.28" height="344.41">

<g inkscape:groupmode="layer" inkscape:label="Layer 1">
<path transform="matrix(1,0,0,-1,0,841.8898)" d="M1452.6853 474.1642 1497.7466 474.188C1499.9641 472.9482 1500.101 471.8231 1501.0595 469.0488 1502.3013 465.4531 1501.6586 465.0503 1504.7612 464.1698 1505.5484 465.9885 1504.2206 462.8333 1505.4026 466.1974L1506.653 469.0925C1507.0167 465.1248 1507.6766 460.6407 1508.1174 456.6351L1509.317 447.2538C1510.3803 444.7483 1508.927 446.2492 1511.2363 445.6037 1512.9822 448.2 1515.7063 485.4974 1515.899 491.4638 1518.3609 487.5123 1519.4591 432.5111 1520.4572 429.0962 1521.5488 425.3644 1520.3823 427.4481 1523.2235 426.8543L1526.5514 460.8513 1528.6337 478.3575 1530.5029 474.2206 1553.8442 474.2155V477.1684L1532.4165 477.1848C1531.3898 480.926 1530.3484 487.3311 1528.954 490.1202 1527.2186 489.9115 1527.584 490.0371 1526.6874 488.6881L1522.4777 448.7C1520.4801 453.7607 1519.7975 511.9016 1517.3975 517.409 1514.5007 516.4747 1515.0983 516.2397 1514.8463 512.2474L1510.8335 466.1164C1509.3921 468.1023 1509.4002 469.1098 1509.12 471.7383 1508.7322 475.3774 1508.802 486.4048 1505.9904 488.3916 1503.4082 486.7724 1503.9417 479.217 1503.11 473.1199 1498.9691 477.8385 1502.8291 477.013 1494.003 477.006L1452.6853 477.0062Z" fill="#e3000f" fill-rule="evenodd"/>
<path transform="matrix(1,0,0,-1,0,841.8898)" d="M1302.6957 451.0905H1334.0175V428.6537H1278.6024V497.1849H1278.6994V501.9381C1278.9003 508.6261 1284.403 514.0108 1291.1392 514.0108H1292.2924 1297.8134 1333.4153V491.8181H1302.6957V482.5508H1330.4032V460.6019H1302.6957Z" fill="#13b2ad" fill-rule="evenodd"/>
<path transform="matrix(1,0,0,-1,0,841.8898)" d="M1268.2199 486.4972V468.0822C1268.2199 461.2122 1262.6354 455.6288 1255.7653 455.6288H1242.7705V452.9415H1242.7903V432.3013C1242.7903 431.1386 1241.8444 430.1929 1240.6825 430.1929H1222.2604C1215.3975 430.1929 1209.8129 435.7831 1209.8129 442.6523V455.6288H1186.4904C1185.3283 455.6288 1184.3827 456.5733 1184.3827 457.7366V476.151C1184.3827 483.016 1189.9672 488.605 1196.8364 488.605H1209.8129V511.933C1209.8129 513.1006 1210.7529 514.0409 1211.9213 514.0409H1230.3312C1237.2005 514.0409 1242.7903 508.4569 1242.7903 501.5869V488.605H1266.112C1267.279 488.605 1268.2199 487.6648 1268.2199 486.4972" fill="#13b2ad" fill-rule="evenodd"/>
<path transform="matrix(1,0,0,-1,0,841.8898)" d="M1148.1111 432.1372C1148.1945 431.0512 1149.1002 430.1929 1150.2128 430.1929H1168.6209C1175.489 430.1929 1181.0781 435.7826 1181.0781 442.6506V448.8951 454.2999 511.9177C1181.0781 513.0797 1180.1327 514.0253 1178.9702 514.0253H1160.5513C1153.8153 514.0253 1148.3121 508.6406 1148.1111 501.9523V454.2999 448.8951Z" fill="#13b2ad" fill-rule="evenodd"/>
<path transform="matrix(1,0,0,-1,0,841.8898)" d="M1242.9839 448.4823H1228.4819C1225.3615 448.4823 1222.5916 449.9887 1220.8558 452.3083 1219.6655 453.8991 1218.9589 455.8683 1218.9589 458.0036 1218.9589 463.0762 1222.958 467.2417 1227.9694 467.5031 1228.2378 472.5207 1232.3975 476.5139 1237.476 476.5139 1242.7257 476.5139 1246.9978 472.2426 1246.9978 466.9982V455.3337H1242.7824V466.9982C1242.7824 469.9179 1240.4013 472.2987 1237.476 472.2987 1234.5554 472.2987 1232.1686 469.9179 1232.1686 466.9982 1232.1686 466.558 1232.225 466.1243 1232.3307 465.7017 1232.5144 464.9839 1232.3021 464.2282 1231.7752 463.6993 1231.2525 463.1769 1230.4948 462.9651 1229.7774 463.1488 1229.3546 463.2545 1228.9215 463.3038 1228.4819 463.3038 1225.5623 463.3038 1223.1757 460.9242 1223.1757 458.0036 1223.1757 455.0783 1225.5623 452.6977 1228.4819 452.6977H1242.9839Z" fill="#ffffff" fill-rule="evenodd"/>
<path transform="matrix(1,0,0,-1,0,841.8898)" d="M1380.6184 514.0108H1376.8923 1373.9445C1368.5505 514.0108 1363.9476 510.5577 1362.2241 505.7473H1361.8953L1337.6316 428.6537H1363.532L1366.4234 439.628H1390.758L1393.6493 428.6537H1419.5497L1392.6856 514.0108ZM1371.6034 459.1383H1385.5779L1378.5905 485.3554Z" fill="#13b2ad" fill-rule="evenodd"/>
<path transform="matrix(1,0,0,-1,0,841.8898)" d="M1443.4829 514.0108H1440.5995 1436.8088C1430.0728 514.0108 1424.57 508.6261 1424.3687 501.9378V495.4723 489.6437 428.6537H1496.9373V452.31H1448.462V514.0108Z" fill="#13b2ad" fill-rule="evenodd"/>
<path transform="matrix(1,0,0,-1,0,841.8898)" d="M1333.8641 418.9153H1357.958V333.5581H1338.6832L1312.1802 372.5787V333.5581H1288.0868V394.5481 398.2059 406.8422C1288.2879 413.5306 1293.7907 418.9153 1300.5266 418.9153H1301.5485 1307.2008 1307.3615L1333.8641 379.8952Z" fill="#13b2ad" fill-rule="evenodd"/>
<path transform="matrix(1,0,0,-1,0,841.8898)" d="M1404.9406 418.9153C1416.5855 418.9153 1426.3234 414.8306 1434.1535 406.6608 1441.9843 398.4908 1445.8992 388.3493 1445.8992 376.2369 1445.8992 364.1241 1441.9843 353.9829 1434.1535 345.8132 1426.3234 337.6431 1416.5855 333.5581 1404.9406 333.5581H1370.0049V394.5481 400.424 406.8422C1370.2059 413.5306 1375.7091 418.9153 1382.4451 418.9153H1384.3543 1389.1192ZM1404.9406 357.2144C1409.8397 357.2144 1413.8751 358.9824 1417.0473 362.5189 1420.2199 366.0548 1421.8058 370.6277 1421.8058 376.2369 1421.8058 381.846 1420.2199 386.4186 1417.0473 389.9551 1413.8751 393.4911 1409.8397 395.259 1404.9406 395.259H1395.3027V357.2144Z" fill="#13b2ad" fill-rule="evenodd"/>
<path transform="matrix(1,0,0,-1,0,841.8898)" d="M1466.4674 418.9153H1472.1233 1477.1024V333.5581H1453.009V394.5481 400.1193 406.8422C1453.2103 413.5306 1458.7133 418.9153 1465.4492 418.9153Z" fill="#13b2ad" fill-rule="evenodd"/>
<path transform="matrix(1,0,0,-1,0,841.8898)" d="M1265.4046 418.9153H1271.0606 1276.0398V333.5581H1251.9465V394.5481 400.1193 406.8422C1252.1475 413.5306 1257.6504 418.9153 1264.3864 418.9153Z" fill="#13b2ad" fill-rule="evenodd"/>
<path transform="matrix(1,0,0,-1,0,841.8898)" d="M1526.834 418.9153H1523.1078 1520.1598C1514.7658 418.9153 1510.1629 415.4621 1508.4397 410.652H1508.1106L1483.847 333.5581H1509.7476L1512.6389 344.5325H1536.9732L1539.8646 333.5581H1565.765L1538.9008 418.9153ZM1517.8187 364.0428H1531.7932L1524.8058 390.2598Z" fill="#13b2ad" fill-rule="evenodd"/>
<path transform="matrix(1,0,0,-1,0,841.8898)" d="M1351.6997 303.3181V303.3181H1350.4833 1349.267V322.3695H1350.4462 1351.6376L1357.3012 314.6922H1357.3054L1362.9859 322.3695H1364.0202 1365.0545V303.3181H1363.8379 1362.6215V317.965H1362.63L1357.293 310.7489H1357.1607 1357.0282L1351.6997 317.9792ZM1373.1721 303.3181V303.3181 322.3695H1382.7039V321.1775 319.9671H1375.6049V314.1289H1382.5054V312.9369 311.7266H1375.6049V305.7205H1383.0021V304.5285 303.3181ZM1390.081 303.3181V322.3695H1391.2931 1396.7459C1399.3648 322.3695 1401.5078 321.4803 1403.1709 319.7018 1404.8383 317.9279 1405.6696 315.6372 1405.6696 312.8391 1405.6696 310.0456 1404.7886 307.7597 1403.026 305.9858 1401.2637 304.2074 1398.9963 303.3181 1396.2163 303.3181H1391.2931ZM1392.5134 305.8322V305.8322H1396.2206C1398.3593 305.8322 1400.0474 306.4609 1401.2844 307.7133 1402.5214 308.9656 1403.1377 310.6743 1403.1377 312.8391 1403.1377 315.0088 1402.5671 316.722 1401.4293 317.9744 1400.2914 319.227 1398.7318 319.8555 1396.7542 319.8555H1392.5134ZM1413.1709 303.3181V322.3695H1414.387 1415.6033V303.3181H1414.387ZM1442.0364 303.3181V319.9671H1436.1784V321.1637 322.3695H1450.3275V321.1775 319.9671H1444.4691V303.3181H1443.2528ZM1465.4328 303.0389C1462.8842 303.0389 1460.7326 303.9885 1458.9746 305.8835 1457.2162 307.7785 1456.3392 310.0969 1456.3392 312.844 1456.3392 315.5862 1457.2162 317.9047 1458.9746 319.8042 1460.7326 321.6991 1462.8842 322.649 1465.4328 322.649 1467.9854 322.649 1470.1408 321.6991 1471.8988 319.8042 1473.6574 317.9047 1474.5346 315.5862 1474.5346 312.844 1474.5346 310.0969 1473.6574 307.7785 1471.8988 305.8835 1470.1408 303.9885 1467.9854 303.0389 1465.4328 303.0389ZM1465.4328 305.553C1467.377 305.553 1468.9616 306.2279 1470.1779 307.5829 1471.394 308.9375 1472.0023 310.6928 1472.0023 312.844 1472.0023 315.004 1471.394 316.7546 1470.1779 318.1096 1468.9616 319.4597 1467.377 320.1347 1465.4328 320.1347 1463.5003 320.1347 1461.9243 319.4597 1460.7037 318.1096 1459.4834 316.7546 1458.8709 315.004 1458.8709 312.844 1458.8709 310.6928 1459.4834 308.9375 1460.7037 307.5829 1461.9243 306.2279 1463.5003 305.553 1465.4328 305.553ZM1496.2136 310.4135C1496.2136 308.2068 1495.5474 306.4235 1494.2151 305.0688 1492.8789 303.7139 1491.1166 303.0389 1488.928 303.0389 1486.7478 303.0389 1484.9854 303.7139 1483.649 305.0688 1482.3128 306.4235 1481.6425 308.2068 1481.6425 310.4135V322.3695H1482.8587 1484.0751V310.9116C1484.0751 309.2031 1484.5054 307.8621 1485.366 306.8938 1486.2223 305.9254 1487.4097 305.4413 1488.928 305.4413 1490.4465 305.4413 1491.6339 305.9254 1492.49 306.8938 1493.351 307.8621 1493.7809 309.2031 1493.7809 310.9116V322.3695H1494.9972 1496.2136ZM1504.0872 303.3181V322.3695H1505.2992 1508.4312C1510.1685 322.3695 1511.5133 321.9225 1512.4522 321.0239 1513.3955 320.1301 1513.8676 318.8546 1513.8676 317.1969 1513.8676 315.5536 1513.3955 314.2826 1512.4483 313.3933 1512.0057 312.9741 1511.4719 312.6484 1510.8511 312.4202L1511.2361 312.1642C1512.0924 311.5729 1512.9406 310.5578 1513.7804 309.1238L1517.1769 303.3181H1515.7208 1514.2603L1511.4801 308.2487C1510.7769 309.5056 1510.115 310.3855 1509.4902 310.9025 1508.8698 311.4145 1508.1497 311.6707 1507.3347 311.6707H1506.5198V303.3181H1505.3034ZM1506.5198 314.1848V314.1848H1508.435C1509.4074 314.1848 1510.1314 314.4175 1510.6156 314.8877 1511.0952 315.3532 1511.3353 316.061 1511.3353 317.0061 1511.3353 317.9605 1511.0952 318.6729 1510.6156 319.1477 1510.1314 319.6179 1509.4074 319.8555 1508.435 319.8555H1506.5198ZM1523.528 303.3181V322.3695H1524.7443 1525.9606V303.3181H1524.7443ZM1542.2241 318.2074C1541.6328 318.8684 1541.0327 319.3526 1540.4247 319.6644 1539.8164 319.9765 1539.167 320.1347 1538.4719 320.1347 1537.6113 320.1347 1536.9165 319.9207 1536.3828 319.4875 1535.845 319.0592 1535.5803 318.496 1535.5803 317.8069 1535.5803 317.1969 1535.8076 316.6381 1536.2586 316.1214 1536.7055 315.6001 1537.5121 314.9668 1538.6871 314.2125 1540.2178 313.2303 1541.306 312.3037 1541.9472 311.4332 1542.5802 310.5626 1542.8945 309.5663 1542.8945 308.4489 1542.8945 306.8053 1542.46 305.4923 1541.5911 304.5101 1540.7227 303.5276 1539.5641 303.0389 1538.1079 303.0389 1537.1935 303.0389 1536.362 303.1877 1535.6132 303.4857 1534.8604 303.7836 1534.0993 304.268 1533.3214 304.9384V308.3185C1534.0575 307.3827 1534.8064 306.6888 1535.5593 306.2327 1536.3164 305.7812 1537.1026 305.553 1537.9218 305.553 1538.7243 305.553 1539.3739 305.7857 1539.8745 306.256 1540.3792 306.7214 1540.6275 307.3266 1540.6275 308.0716 1540.6275 308.7513 1540.3997 309.3707 1539.949 309.9246 1539.502 310.4694 1538.6913 311.1165 1537.5161 311.8708 1535.9815 312.853 1534.8932 313.7658 1534.252 314.6083 1533.6272 315.4465 1533.3129 316.387 1533.3129 317.4299 1533.3129 319.0127 1533.7803 320.2744 1534.7194 321.2243 1535.6546 322.1739 1536.908 322.649 1538.4762 322.649 1539.1463 322.649 1539.771 322.5464 1540.3419 322.3417 1540.9171 322.1368 1541.5415 321.7921 1542.2241 321.3079ZM1552.4067 303.3181V303.3181H1551.1901 1549.9738V322.3695H1551.153 1552.3444L1558.008 314.6922H1558.0123L1563.6926 322.3695H1564.727 1565.7614V303.3181H1564.545 1563.3286V317.965H1563.3369L1557.9998 310.7489H1557.8677 1557.735L1552.4067 317.9792Z" fill="#1a1a18"/>
<path transform="matrix(1,0,0,-1,0,841.8898)" d="M1157.7073 533.1521C1157.1239 533.6036 1156.5862 533.9296 1156.0978 534.1346 1155.6096 534.3347 1155.0966 534.437 1154.5671 534.437 1154.0707 534.437 1153.6693 534.3301 1153.3593 534.1113 1153.0488 533.897 1152.8915 533.6084 1152.8915 533.2592 1152.8915 532.9658 1153.0407 532.6773 1153.3385 532.3887 1153.6404 532.0998 1154.1781 531.7228 1154.956 531.2619 1156.1392 530.5541 1156.9793 529.8885 1157.4839 529.2598 1157.9804 528.6359 1158.2286 527.9284 1158.2286 527.1369 1158.2286 526.0382 1157.8728 525.1581 1157.1571 524.5019 1156.4413 523.8454 1155.494 523.5148 1154.3067 523.5148 1153.7396 523.5148 1153.1812 523.6078 1152.6267 523.794 1152.0765 523.9803 1151.4271 524.2969 1150.6823 524.7439V527.3697C1151.4104 526.7832 1152.0641 526.3594 1152.6353 526.0941 1153.2101 525.8288 1153.7688 525.6935 1154.3108 525.6935 1154.8196 525.6935 1155.2293 525.8239 1155.5479 526.0799 1155.8622 526.3362 1156.0192 526.6712 1156.0192 527.0763 1156.0192 527.4768 1155.9033 527.7886 1155.6718 528.0123 1155.4359 528.2311 1154.7326 528.6827 1153.5659 529.3718 1152.5233 529.9863 1151.7789 530.5867 1151.3319 531.1687 1150.8976 531.7415 1150.6823 532.3932 1150.6823 533.1288 1150.6823 534.181 1151.0133 535.0283 1151.6795 535.6616 1152.3455 536.2994 1153.2351 536.616 1154.3397 536.616 1154.9107 536.616 1155.4566 536.5321 1155.9696 536.36 1156.4785 536.1922 1157.0618 535.9037 1157.7073 535.4986ZM1164.6179 523.5148C1163.8276 523.5148 1163.1903 523.7986 1162.7105 524.3666 1162.2305 524.9347 1161.9907 525.6797 1161.9907 526.606 1161.9907 527.421 1162.2348 528.1285 1162.7189 528.7292 1163.2028 529.3298 1163.9268 529.8233 1164.8948 530.2142L1167.7745 531.3875V532.165C1167.7745 532.8961 1167.6129 533.4267 1167.2904 533.7621 1166.9717 534.102 1166.4629 534.2695 1165.7719 534.2695 1165.0357 534.2695 1164.3778 534.1113 1163.7944 533.7899 1163.211 533.4687 1162.6858 532.9752 1162.2141 532.3141V534.8563C1162.7393 535.466 1163.2898 535.913 1163.865 536.1922 1164.4398 536.4763 1165.0853 536.616 1165.7968 536.616 1167.1663 536.616 1168.2088 536.239 1168.9203 535.4847 1169.6278 534.7304 1169.9837 533.6223 1169.9837 532.1605V525.8472C1169.9837 525.6748 1170.0208 525.5447 1170.0995 525.4563 1170.174 525.3724 1170.2854 525.3304 1170.4303 525.3304 1170.5462 525.3304 1170.7036 525.4002 1170.9102 525.5447 1171.1174 525.6935 1171.328 525.8798 1171.5474 526.108V524.539C1171.295 524.255 1170.9519 524.0222 1170.5173 523.8312 1170.0789 523.6404 1169.6652 523.5426 1169.2803 523.5426 1168.8582 523.5426 1168.5025 523.6917 1168.213 523.9848 1168.002 524.2037 1167.8613 524.4644 1167.7868 524.7717 1167.522 524.5251 1167.2283 524.3108 1166.9136 524.1294 1166.2064 523.7195 1165.441 523.5148 1164.6179 523.5148ZM1167.7745 526.1593V529.9396L1166.347 529.367C1165.6437 529.0877 1165.1182 528.7385 1164.7706 528.3196 1164.4234 527.9051 1164.2496 527.4162 1164.2496 526.8529 1164.2496 526.4014 1164.4027 526.0334 1164.7089 525.7542 1165.015 525.4702 1165.4164 525.3304 1165.9085 525.3304 1166.3141 525.3304 1166.707 525.4282 1167.096 525.6283 1167.3689 525.7726 1167.5966 525.9498 1167.7745 526.1593ZM1175.5827 523.794V536.3368H1176.6873 1177.7919V534.5442C1178.851 535.9363 1179.9266 536.6254 1181.0149 536.616 1182.3097 536.616 1183.29 536.1738 1183.9603 535.2939 1184.6307 534.4138 1184.9655 533.1243 1184.9655 531.4249V523.794H1183.8611 1182.7562V531.6063C1182.7562 532.5608 1182.5702 533.2873 1182.1978 533.7947 1181.8295 534.2975 1181.2879 534.549 1180.5763 534.549 1179.6576 534.549 1178.8013 534.0135 1178.0114 532.9426L1177.7919 532.6401V523.794H1176.6873ZM1196.8489 524.2689C1196.2324 523.766 1195.3886 523.5148 1194.3088 523.5148 1193.1089 523.5148 1192.174 523.8825 1191.5036 524.6181 1190.8294 525.3537 1190.4942 526.3826 1190.4942 527.6957V534.0461H1188.6077V534.386L1192.6786 538.8508H1192.7035V536.3368H1196.1043V534.0461H1192.7035V528.0307C1192.7035 527.3138 1192.8566 526.769 1193.167 526.4059 1193.4729 526.0428 1193.9363 525.8611 1194.5529 525.8611 1195.5498 525.8704 1196.3151 526.1312 1196.8489 526.6434ZM1205.8486 523.5148C1204.1028 523.5148 1202.6713 524.1246 1201.5626 525.3443 1200.4498 526.5689 1199.8953 528.1379 1199.8953 530.0515 1199.8953 531.9743 1200.4498 533.5526 1201.5626 534.7769 1202.6713 536.0014 1204.1028 536.616 1205.8486 536.616 1207.5902 536.616 1209.0217 536.0014 1210.1389 534.7769 1211.2517 533.5526 1211.8102 531.9743 1211.8102 530.0515 1211.8102 528.1379 1211.2517 526.5689 1210.1389 525.3443 1209.0217 524.1246 1207.5902 523.5148 1205.8486 523.5148ZM1205.8486 525.6935C1206.9408 525.6935 1207.8303 526.0986 1208.5169 526.9088 1209.208 527.7189 1209.5512 528.7663 1209.5512 530.0515 1209.5512 531.3458 1209.208 532.4026 1208.5169 533.2173 1207.8303 534.0319 1206.9408 534.437 1205.8486 534.437 1204.7522 534.437 1203.867 534.0319 1203.18 533.2173 1202.4976 532.4026 1202.154 531.3458 1202.154 530.0515 1202.154 528.7663 1202.4976 527.7189 1203.18 526.9088 1203.867 526.0986 1204.7522 525.6935 1205.8486 525.6935ZM1222.8704 533.1521C1222.287 533.6036 1221.7493 533.9296 1221.2612 534.1346 1220.773 534.3347 1220.2597 534.437 1219.7305 534.437 1219.2338 534.437 1218.8327 534.3301 1218.5223 534.1113 1218.2119 533.897 1218.0549 533.6084 1218.0549 533.2592 1218.0549 532.9658 1218.2037 532.6773 1218.5016 532.3887 1218.8035 532.0998 1219.3416 531.7228 1220.1194 531.2619 1221.3023 530.5541 1222.1425 529.8885 1222.647 529.2598 1223.1434 528.6359 1223.3917 527.9284 1223.3917 527.1369 1223.3917 526.0382 1223.0359 525.1581 1222.3202 524.5019 1221.6044 523.8454 1220.6571 523.5148 1219.4697 523.5148 1218.9027 523.5148 1218.3444 523.6078 1217.79 523.794 1217.2398 523.9803 1216.5902 524.2969 1215.8456 524.7439V527.3697C1216.5739 526.7832 1217.2272 526.3594 1217.7984 526.0941 1218.3735 525.8288 1218.9319 525.6935 1219.4739 525.6935 1219.9827 525.6935 1220.3923 525.8239 1220.711 526.0799 1221.0253 526.3362 1221.1824 526.6712 1221.1824 527.0763 1221.1824 527.4768 1221.0667 527.7886 1220.8348 528.0123 1220.599 528.2311 1219.8958 528.6827 1218.729 529.3718 1217.6864 529.9863 1216.942 530.5867 1216.495 531.1687 1216.0607 531.7415 1215.8456 532.3932 1215.8456 533.1288 1215.8456 534.181 1216.1764 535.0283 1216.8428 535.6616 1217.5087 536.2994 1218.3982 536.616 1219.5028 536.616 1220.0737 536.616 1220.6198 536.5321 1221.1328 536.36 1221.6416 536.1922 1222.2249 535.9037 1222.8704 535.4986ZM1229.2144 526.839C1229.632 526.839 1229.9876 526.676 1230.2731 526.3546 1230.5588 526.0334 1230.7034 525.6425 1230.7034 525.1768 1230.7034 524.7159 1230.5588 524.3202 1230.2731 523.999 1229.9876 523.6775 1229.632 523.5148 1229.2144 523.5148 1228.7962 523.5148 1228.4406 523.6775 1228.155 523.999 1227.8696 524.3202 1227.7247 524.7159 1227.7247 525.1768 1227.7247 525.6425 1227.8696 526.0334 1228.155 526.3546 1228.4406 526.676 1228.7962 526.839 1229.2144 526.839ZM1244.0801 524.4367C1243.4888 524.0968 1242.959 523.8592 1242.4915 523.7195 1242.024 523.5846 1241.5028 523.5148 1240.9277 523.5148 1239.215 523.5148 1237.8124 524.1246 1236.7244 525.3443 1235.6362 526.5689 1235.0942 528.1379 1235.0942 530.0515 1235.0942 531.9788 1235.5827 533.5526 1236.5631 534.7769 1237.5394 536.0014 1238.8014 536.616 1240.3444 536.616 1240.9194 536.616 1241.4489 536.5463 1241.9374 536.4111 1242.4212 536.2716 1242.9879 536.034 1243.6336 535.6942V533.0404C1243.1245 533.5061 1242.6364 533.8412 1242.169 534.0461 1241.7058 534.2508 1241.2091 534.3534 1240.6836 534.3534 1239.7031 534.3534 1238.9046 533.9529 1238.2843 533.1569 1237.6675 532.3561 1237.3574 531.3223 1237.3574 530.0515 1237.3574 528.7895 1237.701 527.7609 1238.3875 526.9694 1239.0744 526.1732 1239.9639 525.7774 1241.0603 525.7774 1241.6105 525.7774 1242.1237 525.8798 1242.599 526.0847 1243.075 526.2897 1243.5712 526.6247 1244.0801 527.0905ZM1250.3497 523.5148C1249.5595 523.5148 1248.9223 523.7986 1248.4423 524.3666 1247.9627 524.9347 1247.7227 525.6797 1247.7227 526.606 1247.7227 527.421 1247.9666 528.1285 1248.4508 528.7292 1248.935 529.3298 1249.6586 529.8233 1250.6267 530.2142L1253.5064 531.3875V532.165C1253.5064 532.8961 1253.3449 533.4267 1253.0222 533.7621 1252.7036 534.102 1252.1948 534.2695 1251.5037 534.2695 1250.7676 534.2695 1250.1096 534.1113 1249.5263 533.7899 1248.9429 533.4687 1248.4176 532.9752 1247.946 532.3141V534.8563C1248.4716 535.466 1249.0217 535.913 1249.5969 536.1922 1250.172 536.4763 1250.8173 536.616 1251.5287 536.616 1252.8981 536.616 1253.9407 536.239 1254.6522 535.4847 1255.3598 534.7304 1255.7155 533.6223 1255.7155 532.1605V525.8472C1255.7155 525.6748 1255.7529 525.5447 1255.8314 525.4563 1255.9059 525.3724 1256.0173 525.3304 1256.1622 525.3304 1256.2781 525.3304 1256.4354 525.4002 1256.6421 525.5447 1256.8493 525.6935 1257.0599 525.8798 1257.2793 526.108V524.539C1257.027 524.255 1256.6837 524.0222 1256.2492 523.8312 1255.8107 523.6404 1255.3971 523.5426 1255.0122 523.5426 1254.5905 523.5426 1254.2343 523.6917 1253.945 523.9848 1253.7337 524.2037 1253.5932 524.4644 1253.5186 524.7717 1253.2542 524.5251 1252.9602 524.3108 1252.6458 524.1294 1251.9384 523.7195 1251.1729 523.5148 1250.3497 523.5148ZM1253.5064 526.1593V529.9396L1252.0789 529.367C1251.3756 529.0877 1250.8504 528.7385 1250.5025 528.3196 1250.1553 527.9051 1249.9815 527.4162 1249.9815 526.8529 1249.9815 526.4014 1250.1347 526.0334 1250.4407 525.7542 1250.747 525.4702 1251.1483 525.3304 1251.6403 525.3304 1252.046 525.3304 1252.4389 525.4282 1252.8278 525.6283 1253.1008 525.7726 1253.3284 525.9498 1253.5064 526.1593ZM1261.5131 523.794V536.3368H1262.6178 1263.7222V533.4316C1263.9498 533.9483 1264.2106 534.4186 1264.5086 534.8469 1265.3067 536.0247 1266.1549 536.616 1267.0486 536.616 1268.0249 536.616 1268.8937 536.1131 1269.6552 535.1029L1268.4552 532.8264 1268.4306 532.8635C1267.7355 533.7992 1267.1067 534.2695 1266.5438 534.2695 1265.7124 534.2695 1265.0545 533.9529 1264.5703 533.3151 1264.0864 532.6773 1263.8052 531.7461 1263.7222 530.5263V523.794H1262.6178ZM1278.597 523.5148C1276.8925 523.5148 1275.4939 524.1246 1274.4063 525.3443 1273.318 526.5689 1272.7758 528.1379 1272.7758 530.0515 1272.7758 531.9788 1273.2435 533.5526 1274.1826 534.7769 1275.1217 536.0014 1276.3259 536.616 1277.7985 536.616 1279.4035 536.616 1280.645 536.0479 1281.5178 534.9073 1282.3909 533.7666 1282.8294 532.1511 1282.8294 530.0515L1282.8334 529.6045H1275.0681C1275.1549 528.5988 1275.4899 527.7515 1276.0608 527.0717 1276.7394 526.2849 1277.6207 525.8891 1278.6919 525.8891 1279.4616 525.8891 1280.1773 526.0428 1280.835 526.35 1281.493 526.6573 1282.159 527.1463 1282.8294 527.8167V525.1907C1282.1343 524.5948 1281.4557 524.1665 1280.7938 523.9057 1280.1277 523.6449 1279.3955 523.5148 1278.597 523.5148ZM1280.715 531.2526V531.2526C1280.6201 532.1186 1280.4008 532.8122 1280.0617 533.3244 1279.5775 534.0645 1278.8617 534.437 1277.9144 534.437 1277.0663 534.437 1276.3755 534.0413 1275.8417 533.2453 1275.4817 532.7099 1275.2376 532.0488 1275.1177 531.2526Z" fill="#1a1a18"/>
<path transform="matrix(1,0,0,-1,0,841.8898)" d="M1465.1782 512.7523C1467.042 512.7523 1468.8601 512.2749 1470.6386 511.3157 1472.4116 510.3612 1473.798 508.9898 1474.7876 507.2117 1475.7772 505.4284 1476.2744 503.5697 1476.2744 501.641 1476.2744 499.7271 1475.7871 497.8837 1474.8078 496.1205 1473.8333 494.3523 1472.4669 492.9809 1470.7037 492.0066 1468.9406 491.027 1467.0969 490.5397 1465.1782 490.5397 1463.2543 490.5397 1461.4109 491.027 1459.6478 492.0066 1457.8847 492.9809 1456.5132 494.3523 1455.5336 496.1205 1454.5542 497.8837 1454.0618 499.7271 1454.0618 501.641 1454.0618 503.5697 1454.5593 505.4284 1455.5537 507.2117 1456.5535 508.9898 1457.94 510.3612 1459.713 511.3157 1461.4911 512.2749 1463.3096 512.7523 1465.1782 512.7523ZM1465.1782 510.9137C1463.616 510.9137 1462.0941 510.5117 1460.6172 509.7132 1459.1404 508.9144 1457.985 507.7692 1457.1513 506.2825 1456.3174 504.7954 1455.9004 503.2483 1455.9004 501.641 1455.9004 500.0386 1456.3123 498.5065 1457.1312 497.0398 1457.9498 495.5729 1459.095 494.4277 1460.5671 493.6088 1462.0388 492.7901 1463.5757 492.3782 1465.1782 492.3782 1466.7755 492.3782 1468.3128 492.7901 1469.7846 493.6088 1471.2562 494.4277 1472.4014 495.5729 1473.2152 497.0398 1474.029 498.5065 1474.4358 500.0386 1474.4358 501.641 1474.4358 503.2483 1474.019 504.7954 1473.1903 506.2825 1472.3615 507.7692 1471.206 508.9144 1469.7241 509.7132 1468.2424 510.5117 1466.7254 510.9137 1465.1782 510.9137ZM1460.3007 495.5128V507.4478H1464.4097C1465.8163 507.4478 1466.8308 507.3372 1467.4586 507.1161 1468.0916 506.8953 1468.5888 506.5135 1468.9658 505.961 1469.3374 505.4134 1469.5234 504.8306 1469.5234 504.2129 1469.5234 503.3438 1469.2119 502.5804 1468.584 501.9372 1467.9609 501.2892 1467.1321 500.9275 1466.0974 500.8473 1466.5195 500.6716 1466.8611 500.4604 1467.1123 500.2143 1467.5944 499.7472 1468.182 498.9586 1468.8803 497.8485L1470.3369 495.5128H1467.9961L1466.9314 497.3913C1466.0974 498.8733 1465.4194 499.8025 1464.9069 500.1741 1464.5554 500.4454 1464.0429 500.5811 1463.3649 500.576H1462.2296V495.5128ZM1462.2296 502.2337H1464.5704C1465.6907 502.2337 1466.454 502.3996 1466.8611 502.7309 1467.268 503.0626 1467.474 503.5045 1467.474 504.0471 1467.474 504.3986 1467.3733 504.7152 1467.1774 504.9913 1466.9816 505.2728 1466.7103 505.4786 1466.3637 505.6143 1466.0121 505.7498 1465.3692 505.8201 1464.4247 505.8201H1462.2296Z" fill="#1a1a18"/>
<path transform="matrix(1,0,0,-1,0,841.8898)" d="M-1036.3482 226.0094-1038.1842 224.3908C-1038.8273 225.2846-1039.4827 225.7316-1040.15 225.7316-1040.4763 225.7316-1040.742 225.644-1040.9474 225.4717-1041.1554 225.2968-1041.2583 225.1003-1041.2583 224.8829-1041.2583 224.6655-1041.1858 224.4572-1041.0379 224.2638-1040.8355 224.0042-1040.2285 223.4486-1039.2168 222.594-1038.2717 221.8028-1037.698 221.3045-1037.4956 221.0992-1036.9945 220.5918-1036.6381 220.1088-1036.4268 219.6468-1036.2183 219.1816-1036.1126 218.6773-1036.1126 218.1308-1036.1126 217.0619-1036.4811 216.1831-1037.221 215.4855-1037.9577 214.791-1038.9209 214.4438-1040.1109 214.4438-1041.0379 214.4438-1041.844 214.6703-1042.5325 215.1232-1043.221 215.5791-1043.8129 216.292-1044.3023 217.2643L-1042.2156 218.5203C-1041.5874 217.3728-1040.8657 216.7991-1040.0505 216.7991-1039.6248 216.7991-1039.2653 216.923-1038.9754 217.1707-1038.6853 217.4182-1038.5405 217.705-1038.5405 218.0282-1038.5405 218.321-1038.6493 218.6169-1038.8696 218.9129-1039.087 219.206-1039.5703 219.6587-1040.316 220.2659-1041.7354 221.4193-1042.6504 222.3102-1043.064 222.9384-1043.4779 223.5662-1043.6862 224.1916-1043.6862 224.8166-1043.6862 225.7194-1043.3418 226.4924-1042.6564 227.1356-1041.9678 227.7819-1041.1194 228.1051-1040.1109 228.1051-1039.4614 228.1051-1038.8424 227.954-1038.2567 227.6549-1037.668 227.353-1037.0336 226.8065-1036.3482 226.0094ZM-1029.7803 227.7788H-1027.2861L-1022.2792 214.7698H-1024.8551L-1025.8699 217.4513H-1031.2028L-1032.2413 214.7698H-1034.8173ZM-1028.5302 224.3211-1030.2936 219.8429H-1026.7758ZM-1020.3378 227.7788H-1017.9884L-1012.3838 219.2179V227.7788H-1009.9196V214.7698H-1012.2871L-1017.8736 223.3037V214.7698H-1020.3378ZM-1008.2225 227.7788H-1001.0296V225.3328H-1003.4031V214.7698H-1005.9216V225.3328H-1008.2225ZM-993.2117 228.1051C-991.3725 228.1051-989.7902 227.4375-988.4676 226.1061-987.1418 224.7744-986.4805 223.1495-986.4805 221.235-986.4805 219.3358-987.1328 217.7291-988.4404 216.4156-989.7449 215.102-991.3303 214.4438-993.1935 214.4438-995.1471 214.4438-996.7689 215.1201-998.0583 216.47-999.3506 217.8198-999.9969 219.4231-999.9969 221.2804-999.9969 222.5214-999.6948 223.666-999.0941 224.7109-998.4929 225.7526-997.6657 226.58-996.6146 227.19-995.561 227.8001-994.4254 228.1051-993.2117 228.1051ZM-993.2479 225.6772C-994.4467 225.6772-995.4553 225.2574-996.2705 224.4209-997.0889 223.5844-997.4965 222.5214-997.4965 221.2291-997.4965 219.7916-996.9831 218.6532-995.9536 217.8167-995.1531 217.1616-994.2384 216.8354-993.2026 216.8354-992.0339 216.8354-991.0372 217.2611-990.216 218.1098-989.3917 218.9582-988.9809 220.0031-988.9809 221.2472-988.9809 222.4854-989.3945 223.5331-990.2251 224.3908-991.0525 225.2483-992.0611 225.6772-993.2479 225.6772ZM-977.2977 226.0094-979.1337 224.3908C-979.7769 225.2846-980.4322 225.7316-981.0995 225.7316-981.4255 225.7316-981.6914 225.644-981.8966 225.4717-982.1049 225.2968-982.2078 225.1003-982.2078 224.8829-982.2078 224.6655-982.1353 224.4572-981.9873 224.2638-981.7849 224.0042-981.178 223.4486-980.1663 222.594-979.2213 221.8028-978.6475 221.3045-978.4451 221.0992-977.9437 220.5918-977.5877 220.1088-977.3762 219.6468-977.1678 219.1816-977.0621 218.6773-977.0621 218.1308-977.0621 217.0619-977.4306 216.1831-978.1705 215.4855-978.9072 214.791-979.8704 214.4438-981.0601 214.4438-981.9873 214.4438-982.7935 214.6703-983.482 215.1232-984.1706 215.5791-984.7624 216.292-985.2517 217.2643L-983.1648 218.5203C-982.5369 217.3728-981.8152 216.7991-980.9997 216.7991-980.574 216.7991-980.2148 216.923-979.9248 217.1707-979.6348 217.4182-979.49 217.705-979.49 218.0282-979.49 218.321-979.5986 218.6169-979.8191 218.9129-980.0365 219.206-980.5195 219.6587-981.2656 220.2659-982.6849 221.4193-983.5997 222.3102-984.0135 222.9384-984.4271 223.5662-984.6354 224.1916-984.6354 224.8166-984.6354 225.7194-984.2913 226.4924-983.6059 227.1356-982.9174 227.7819-982.0689 228.1051-981.0601 228.1051-980.411 228.1051-979.7919 227.954-979.2062 227.6549-978.6172 227.353-977.9831 226.8065-977.2977 226.0094ZM-969.6183 227.7788H-967.1182V223.2794L-963.5973 227.7788H-960.6107L-965.1552 221.972-960.1699 214.7698H-963.108L-967.1182 220.5646V214.7698H-969.6183ZM-958.5814 227.7788H-956.1172V214.7698H-958.5814ZM-953.312 227.7788H-950.9627L-945.358 219.2179V227.7788H-942.8939V214.7698H-945.2614L-950.8479 223.3037V214.7698H-953.312ZM-927.9011 225.6528-929.6433 223.9288C-930.7457 225.0944-932.0321 225.6772-933.4996 225.6772-934.7769 225.6772-935.8489 225.2543-936.7126 224.4059-937.5763 223.5572-938.0081 222.5276-938.0081 221.3135-938.0081 220.0603-937.561 218.9974-936.6642 218.1249-935.7676 217.2521-934.6623 216.8172-933.3488 216.8172-932.4941 216.8172-931.7724 216.9984-931.1865 217.3578-930.6006 217.7172-930.1266 218.2788-929.7672 219.0458H-933.5327V221.3649H-926.9921L-926.9739 220.8183C-926.9739 219.6799-927.2699 218.6019-927.8589 217.5812-928.4508 216.5635-929.2147 215.7846-930.1507 215.2471-931.0898 214.7125-932.1922 214.4438-933.4542 214.4438-934.8041 214.4438-936.0091 214.7366-937.0689 215.3225-938.1288 215.9113-938.9653 216.7447-939.5844 217.8289-940.2004 218.916-940.5085 220.0847-940.5085 221.3408-940.5085 223.062-939.9376 224.5598-938.7992 225.8311-937.4494 227.3471-935.689 228.1051-933.5237 228.1051-932.3915 228.1051-931.3313 227.8967-930.344 227.4769-929.5135 227.1234-928.6982 226.5137-927.9011 225.6528ZM-920.9103 227.7788H-913.7174V225.3328H-916.0909V214.7698H-918.6094V225.3328H-920.9103ZM-905.8995 228.1051C-904.0603 228.1051-902.478 227.4375-901.1554 226.1061-899.8296 224.7744-899.1683 223.1495-899.1683 221.235-899.1683 219.3358-899.8206 217.7291-901.1282 216.4156-902.4327 215.102-904.0181 214.4438-905.8813 214.4438-907.835 214.4438-909.4567 215.1201-910.7461 216.47-912.0385 217.8198-912.6848 219.4231-912.6848 221.2804-912.6848 222.5214-912.3826 223.666-911.7819 224.7109-911.1807 225.7526-910.3535 226.58-909.3027 227.19-908.2488 227.8001-907.1133 228.1051-905.8995 228.1051ZM-905.9357 225.6772C-907.1345 225.6772-908.1431 225.2574-908.9583 224.4209-909.7767 223.5844-910.1843 222.5214-910.1843 221.2291-910.1843 219.7916-909.671 218.6532-908.6414 217.8167-907.8409 217.1616-906.9262 216.8354-905.8904 216.8354-904.7217 216.8354-903.7253 217.2611-902.9038 218.1098-902.0795 218.9582-901.6688 220.0031-901.6688 221.2472-901.6688 222.4854-902.0823 223.5331-902.9129 224.3908-903.7403 225.2483-904.7489 225.6772-905.9357 225.6772ZM-896.9066 227.7788H-894.4245V219.363C-894.4245 218.6382-894.361 218.1249-894.2343 217.8258-894.1073 217.5239-893.899 217.2852-893.6062 217.1041-893.3131 216.9261-892.9599 216.8354-892.5491 216.8354-892.1112 216.8354-891.737 216.9351-891.4198 217.1373-891.1026 217.3365-890.8852 217.5902-890.7644 217.9012-890.6437 218.2093-890.5833 218.8012-890.5833 219.674V227.7788H-888.101V220.0243C-888.101 218.7136-888.1736 217.8077-888.3215 217.3005-888.4695 216.7931-888.7504 216.3039-889.1671 215.8328-889.5807 215.3616-890.0609 215.0116-890.6046 214.7851-891.1451 214.5586-891.7761 214.4438-892.4947 214.4438-893.4369 214.4438-894.2584 214.6612-894.9557 215.0929-895.6565 215.5277-896.1548 216.0683-896.4567 216.7206-896.7557 217.3728-896.9066 218.4721-896.9066 220.0243ZM-885.0543 227.7788H-882.4241C-880.9866 227.7788-879.9599 227.6521-879.3499 227.3953-878.737 227.1387-878.2478 226.7099-877.8764 226.1149-877.5048 225.5202-877.3177 224.8166-877.3177 224.0011-877.3177 223.1467-877.523 222.431-877.9306 221.8572-878.3413 221.2804-878.9573 220.8455-879.7819 220.5527L-876.7108 214.7698H-879.4165L-882.3396 220.2778H-882.5902V214.7698H-885.0543ZM-882.5902 222.6875H-881.805C-881.0079 222.6875-880.4614 222.7904-880.1592 222.9987-879.8604 223.2071-879.7093 223.5512-879.7093 224.0342-879.7093 224.3183-879.7847 224.5657-879.9327 224.7772-880.0807 224.9887-880.2799 225.1395-880.5308 225.2302-880.7783 225.3237-881.2372 225.3691-881.9048 225.3691H-882.5902ZM-867.8781 226.0094-869.7141 224.3908C-870.3573 225.2846-871.0126 225.7316-871.6799 225.7316-872.0062 225.7316-872.2718 225.644-872.477 225.4717-872.6854 225.2968-872.7883 225.1003-872.7883 224.8829-872.7883 224.6655-872.7157 224.4572-872.5677 224.2638-872.3653 224.0042-871.7584 223.4486-870.7467 222.594-869.8017 221.8028-869.2279 221.3045-869.0255 221.0992-868.5244 220.5918-868.1681 220.1088-867.9566 219.6468-867.7483 219.1816-867.6425 218.6773-867.6425 218.1308-867.6425 217.0619-868.011 216.1831-868.7509 215.4855-869.4876 214.791-870.4508 214.4438-871.6408 214.4438-872.5677 214.4438-873.3739 214.6703-874.0624 215.1232-874.751 215.5791-875.3428 216.292-875.8321 217.2643L-873.7452 218.5203C-873.1174 217.3728-872.3957 216.7991-871.5804 216.7991-871.1546 216.7991-870.7952 216.923-870.5052 217.1707-870.2152 217.4182-870.0704 217.705-870.0704 218.0282-870.0704 218.321-870.179 218.6169-870.3995 218.9129-870.6169 219.206-871.1002 219.6587-871.846 220.2659-873.2653 221.4193-874.1803 222.3102-874.5939 222.9384-875.0078 223.5662-875.2158 224.1916-875.2158 224.8166-875.2158 225.7194-874.8717 226.4924-874.1863 227.1356-873.4978 227.7819-872.6494 228.1051-871.6408 228.1051-870.9914 228.1051-870.3723 227.954-869.7866 227.6549-869.1976 227.353-868.5635 226.8065-867.8781 226.0094ZM-852.0576 219.8854-850.578 218.2003-851.2483 217.5934-851.9128 216.9955-849.8262 214.7698H-852.8309L-853.6884 215.6547C-855.0564 214.8483-856.3306 214.4438-857.5053 214.4438-858.5019 214.4438-859.3081 214.7366-859.9272 215.3194-860.5431 215.9022-860.8513 216.6511-860.8513 217.5661-860.8513 218.2578-860.6761 218.9069-860.3257 219.5229-859.9785 220.136-859.3775 220.7701-858.532 221.4224-859.3654 222.5486-859.7823 223.5481-859.7823 224.4149-859.7823 225.055-859.5045 225.6891-858.9518 226.3141-858.3962 226.9395-857.6141 227.2535-856.6055 227.2535-855.5879 227.2535-854.8058 226.9423-854.259 226.3232-853.7125 225.7044-853.4407 225.0791-853.4407 224.4481-853.4407 223.9529-853.5645 223.4786-853.8151 223.026-854.066 222.5699-854.6397 221.8963-855.5394 221.0085-854.4855 219.7644-853.806 218.9914-853.4982 218.6864-853.3111 218.8253-852.8309 219.227-852.0576 219.8854ZM-856.7626 222.745C-856.1072 223.3066-855.7781 223.799-855.7781 224.2307-855.7781 224.454-855.8504 224.6355-855.9984 224.7772-856.1463 224.9192-856.3428 224.9887-856.5843 224.9887-856.8077 224.9887-856.9981 224.9101-857.1552 224.75-857.3122 224.5901-857.3905 224.4059-857.3905 224.1944-857.3905 223.7717-857.1821 223.2884-856.7626 222.745ZM-855.2767 217.3881C-855.7359 217.8349-856.3819 218.5716-857.2124 219.6045-858.0912 218.8797-858.532 218.2487-858.532 217.705-858.532 217.4513-858.4112 217.2189-858.1728 217.0074-857.931 216.7963-857.6291 216.6905-857.2609 216.6905-856.7323 216.6905-856.0709 216.923-855.2767 217.3881ZM-844.0917 227.7788H-836.8988V225.3328H-839.2723V214.7698H-841.7908V225.3328H-844.0917ZM-835.0506 227.7788H-832.4206C-830.9832 227.7788-829.9565 227.6521-829.3465 227.3953-828.7333 227.1387-828.2441 226.7099-827.8727 226.1149-827.5014 225.5202-827.3143 224.8166-827.3143 224.0011-827.3143 223.1467-827.5195 222.431-827.9271 221.8572-828.3379 221.2804-828.9539 220.8455-829.7782 220.5527L-826.7071 214.7698H-829.4128L-832.3359 220.2778H-832.5865V214.7698H-835.0506ZM-832.5865 222.6875H-831.8015C-831.0042 222.6875-830.4576 222.7904-830.1557 222.9987-829.8567 223.2071-829.7059 223.5512-829.7059 224.0342-829.7059 224.3183-829.7813 224.5657-829.9293 224.7772-830.0772 224.9887-830.2765 225.1395-830.5271 225.2302-830.7748 225.3237-831.2338 225.3691-831.901 225.3691H-832.5865ZM-820.7283 227.7788H-818.2338L-813.2272 214.7698H-815.8031L-816.8176 217.4513H-822.1504L-823.1893 214.7698H-825.7652ZM-819.4779 224.3211-821.2416 219.8429H-817.7236ZM-812.291 227.7788H-809.7454L-806.4751 218.5384-803.1413 227.7788H-800.6049L-805.3004 214.7698H-807.6892ZM-798.5996 227.7788H-791.4974V225.3509H-796.1357V223.0138H-791.4974V220.6222H-796.1357V217.1976H-791.4974V214.7698H-798.5996ZM-789.2144 227.7788H-786.7502V217.1254H-783.1086V214.7698H-789.2144ZM-774.3937 226.0094-776.2297 224.3908C-776.8729 225.2846-777.528 225.7316-778.1956 225.7316-778.5215 225.7316-778.7871 225.644-778.9927 225.4717-779.201 225.2968-779.3036 225.1003-779.3036 224.8829-779.3036 224.6655-779.2313 224.4572-779.0834 224.2638-778.881 224.0042-778.2741 223.4486-777.2624 222.594-776.317 221.8028-775.7433 221.3045-775.5412 221.0992-775.0397 220.5918-774.6834 220.1088-774.4723 219.6468-774.2636 219.1816-774.1582 218.6773-774.1582 218.1308-774.1582 217.0619-774.5264 216.1831-775.2662 215.4855-776.0032 214.791-776.9665 214.4438-778.1562 214.4438-779.0834 214.4438-779.8895 214.6703-780.5781 215.1232-781.2666 215.5791-781.8585 216.292-782.3475 217.2643L-780.2609 218.5203C-779.6327 217.3728-778.911 216.7991-778.0958 216.7991-777.67 216.7991-777.3106 216.923-777.0206 217.1707-776.7309 217.4182-776.586 217.705-776.586 218.0282-776.586 218.321-776.6946 218.6169-776.9151 218.9129-777.1326 219.206-777.6156 219.6587-778.3614 220.2659-779.7807 221.4193-780.6957 222.3102-781.1096 222.9384-781.5231 223.5662-781.7315 224.1916-781.7315 224.8166-781.7315 225.7194-781.3874 226.4924-780.702 227.1356-780.0134 227.7819-779.1647 228.1051-778.1562 228.1051-777.507 228.1051-776.8879 227.954-776.302 227.6549-775.7133 227.353-775.0791 226.8065-774.3937 226.0094ZM-766.7507 227.7788H-764.1204C-762.6983 227.7788-761.6747 227.649-761.0465 227.3862-760.4184 227.1234-759.92 226.6977-759.5578 226.112-759.1955 225.5261-759.0141 224.8226-759.0141 224.0011-759.0141 223.0923-759.2528 222.3374-759.7298 221.7365-760.2041 221.1355-760.8501 220.7157-761.6684 220.4802-762.1486 220.3444-763.0214 220.2778-764.2865 220.2778V214.7698H-766.7507ZM-764.2865 222.6875H-763.4925C-762.8675 222.6875-762.4355 222.7329-762.1909 222.8204-761.9462 222.9111-761.756 223.056-761.614 223.2612-761.4751 223.4667-761.4057 223.7142-761.4057 224.0073-761.4057 224.5116-761.6021 224.8798-761.9947 225.1094-762.2785 225.2815-762.81 225.3691-763.583 225.3691H-764.2865ZM-757.5738 227.7788H-755.0283L-751.7577 218.5384-748.4241 227.7788H-745.8874L-750.583 214.7698H-752.9717ZM-745.1688 227.7788H-737.9759V225.3328H-740.3494V214.7698H-742.8677V225.3328H-745.1688ZM-735.249 217.3065C-734.8654 217.3065-734.5395 217.1735-734.2676 216.9048-733.9989 216.6361-733.8628 216.3101-733.8628 215.9266-733.8628 215.5399-733.9989 215.214-734.2676 214.9421-734.5395 214.6703-734.8654 214.5345-735.249 214.5345-735.6325 214.5345-735.9585 214.6703-736.2303 214.9421-736.4991 215.214-736.6351 215.5399-736.6351 215.9266-736.6351 216.3101-736.4991 216.6361-736.2303 216.9048-735.9585 217.1735-735.6325 217.3065-735.249 217.3065ZM-719.4467 227.7788H-712.2538V225.3328H-714.6272V214.7698H-717.1458V225.3328H-719.4467ZM-710.5507 227.7788H-707.6186C-705.7281 227.7788-704.3241 227.5432-703.4029 227.0752-702.485 226.6072-701.727 225.8461-701.132 224.7894-700.5373 223.7355-700.2414 222.5035-700.2414 221.0933-700.2414 220.0907-700.4075 219.1697-700.7397 218.3301-701.0717 217.4907-701.5337 216.7931-702.1196 216.2375-702.7055 215.6848-703.3397 215.3013-704.022 215.087-704.7045 214.8755-705.8883 214.7698-707.5732 214.7698H-710.5507ZM-708.0866 225.3872V217.1795H-706.9391C-705.8066 217.1795-704.9883 217.3096-704.478 217.5693-703.9675 217.8289-703.5508 218.2669-703.228 218.8797-702.9048 219.4929-702.7415 220.2477-702.7415 221.1474-702.7415 222.5276-703.1282 223.5997-703.8981 224.3605-704.5929 225.0459-705.71 225.3872-707.2469 225.3872ZM-726.1688 227.7788H-723.7046V217.1254H-720.0626V214.7698H-726.1688Z" fill="#004288"/>
<path transform="matrix(1,0,0,-1,0,841.8898)" d="M-949.2409 239.5063C-961.342 239.5063-967.3929 245.7981-967.3929 258.3635V283.8654H-973.5548C-974.6314 283.8654-975.3922 284.1066-975.8007 284.5519-976.2276 284.9975-976.4317 285.7771-976.4317 286.8721V293.5539C-976.4317 294.6302-976.2276 295.4098-975.8007 295.8554-975.3922 296.3194-974.6314 296.5419-973.5548 296.5419H-967.3929V305.3024C-967.3929 306.1749-967.2259 306.843-966.8546 307.3071-965.3326 309.3114-963.1054 311.4646-960.1727 313.7845-959.6531 314.1371-959.2078 314.3228-958.818 314.3228-958.3724 314.3228-957.9455 314.1371-957.5002 313.7845-955.9412 312.5781-954.6233 311.4646-953.5654 310.4067-952.4889 309.3486-951.5795 308.3278-950.8184 307.3071-950.4471 306.843-950.2801 306.1749-950.2801 305.3024V296.5419H-940.6474C-939.5524 296.5419-938.81 296.3194-938.3831 295.8554-937.9746 295.4098-937.7705 294.6302-937.7705 293.5539V286.8721C-937.7705 285.7771-937.9746 284.9975-938.3831 284.5519-938.81 284.1066-939.5524 283.8654-940.6474 283.8654H-950.2801V261.3518C-950.2801 255.5609-948.1643 252.6656-943.9696 252.6656-943.3202 252.6656-942.7076 252.7211-942.1693 252.851-941.631 252.9811-941.1486 253.1109-940.7588 253.2594-939.9977 253.5562-939.4594 253.6492-939.1439 253.5934-938.8471 253.5191-938.5685 253.1109-938.3088 252.3869L-935.1536 243.9607C-934.8381 243.0513-935.0422 242.4016-935.8033 242.0118-936.36 241.7519-937.6591 241.2694-939.7565 240.5642-941.8351 239.8589-944.9904 239.5063-949.2409 239.5063ZM-913.8427 286.204H-913.6199C-910.8916 293.758-906.0103 297.5258-898.9387 297.5258-898.0294 297.5258-897.287 297.47-896.7115 297.3773-896.1361 297.303-895.7279 297.21-895.5051 297.1361-894.9668 296.9688-894.6884 296.5419-894.6884 295.8925V282.7888C-894.6884 281.6566-895.3566 281.3596-896.6557 281.8607-897.0826 282.0464-897.7139 282.2321-898.5305 282.4362-899.3472 282.6403-900.4793 282.7332-901.927 282.7332-905.6574 282.7332-908.5714 281.3596-910.6875 278.6312-912.7848 275.8844-913.8427 272.1722-913.8427 267.4579V243.7379C-913.8427 242.6613-914.0652 241.9004-914.5108 241.492-914.9749 241.0654-915.7357 240.861-916.831 240.861H-928.0227C-929.1178 240.861-929.8789 241.0654-930.3429 241.492-930.7882 241.9004-931.011 242.6613-931.011 243.7379V289.3034C-931.011 290.1759-930.8438 290.844-930.4727 291.3265-929.7116 292.3288-928.8023 293.3683-927.7257 294.4261-926.6678 295.4656-925.35 296.5978-923.7909 297.7855-923.4941 298.0083-923.2157 298.1568-922.9187 298.2311-922.6216 298.3054-922.3804 298.3425-922.1576 298.3425-921.6564 298.3425-921.1368 298.1568-920.6357 297.7855-917.6289 295.4285-915.5316 293.4238-914.3252 291.7534-913.9912 291.3265-913.8427 290.8069-913.8427 290.2314ZM-877.6834 239.5063C-883.0103 239.5063-887.2421 240.9911-890.3786 243.9791-893.5155 246.9861-895.0929 251.1062-895.0929 256.3588-895.0929 259.0688-894.5921 261.6114-893.5897 263.95-892.5874 266.2886-890.8614 268.3488-888.3743 270.1494-885.8871 271.931-882.4164 273.3789-877.9249 274.4739-873.4518 275.5502-867.7352 276.1815-860.775 276.3669-860.775 279.6707-861.5917 282.0464-863.2434 283.494-864.8955 284.9417-867.3639 285.6657-870.6677 285.6657-873.6372 285.6657-876.0688 285.1645-877.9618 284.1437-879.8366 283.123-881.0243 282.4362-881.4883 282.0835-882.0079 281.6382-882.6205 281.4897-883.3445 281.5824-884.3281 281.7309-885.3676 281.9908-886.4626 282.3435-887.576 282.7145-888.764 283.123-890.026 283.6054-890.2117 283.6797-890.4158 283.7911-890.6202 283.9581-890.8427 284.125-890.9728 284.3666-891.0099 284.682-891.0099 284.8677-890.9912 285.0902-890.9541 285.3686-890.9169 285.6472-890.8243 286.1481-890.6757 286.8721-890.5459 287.5961-890.3231 288.4867-890.026 289.5633-889.7477 290.6212-889.4693 291.4566-889.2094 292.032-888.8939 292.6443-888.3371 293.2197-887.576 293.7764-886.9637 294.2776-885.1076 295.0943-881.9895 296.208-878.8714 297.3402-874.3428 297.8969-868.4405 297.8969-852.1631 297.8969-844.0336 289.9718-844.0336 274.1397V243.3668C-844.0336 242.68-844.2193 242.0861-844.5903 241.6034-844.9801 241.1025-845.6298 240.861-846.5207 240.861H-854.6873C-855.2628 240.861-855.7824 240.9352-856.2277 241.1025-856.6917 241.2694-857.1186 241.5849-857.5084 242.0674L-860.8864 246.4106H-861.2578C-862.9279 243.9791-865.1738 242.2159-867.9764 241.1393-870.7975 240.0443-874.027 239.5063-877.6834 239.5063ZM-871.7071 252.1086C-868.3662 252.1086-865.842 252.9624-864.1531 254.67-862.4455 256.3775-861.3505 258.1407-860.8864 259.941V265.9918C-865.9162 265.9918-869.7025 265.602-872.2267 264.8225-874.7325 264.043-876.4214 263.0222-877.2565 261.7787-878.0919 260.5164-878.5001 259.1614-878.5001 257.7138-878.5001 255.6164-877.8506 254.1504-876.5512 253.3337-875.2334 252.517-873.6188 252.1086-871.7071 252.1086ZM-823.6508 245.9095C-825.6368 249.0647-827.604 252.7024-829.5528 256.8229-831.4832 260.9433-833.2464 265.1009-834.8241 269.3324-836.4016 273.5459-837.6639 277.4064-838.5919 280.9142-839.5384 284.4037-840.0025 287.0949-840.0025 288.9879-840.0025 289.7118-839.8168 290.3057-839.4086 290.7882-837.7381 292.8484-835.3624 295.0016-832.2814 297.2475-831.7431 297.6185-831.2604 297.7855-830.8151 297.7855-830.3511 297.7855-829.8686 297.6185-829.3487 297.2475-827.6783 296.0595-826.2865 294.9273-825.1356 293.8694-824.0034 292.83-823.0198 291.7905-822.2403 290.7882-821.8318 290.3057-821.6277 289.6376-821.6277 288.7654V289.0437C-821.6277 286.6864-821.2008 283.587-820.347 279.7637-819.5119 275.94-818.3426 271.9125-816.8391 267.6623-815.3544 263.4304-813.6468 259.5328-811.6792 255.9878H-811.4009C-809.7863 258.6603-808.3199 261.5559-807.0579 264.674-805.7957 267.7921-804.7193 270.9102-803.8468 274.0283-802.9746 277.1464-802.3249 280.0049-801.8609 282.6218-801.4156 285.2388-801.1928 287.3546-801.1928 288.9879V288.7654C-801.1928 289.6376-801.0071 290.3057-800.636 290.7882-799.8007 291.7905-798.8357 292.83-797.7036 293.8694-796.5899 294.9273-795.2165 296.0595-793.6203 297.2475-793.1191 297.6185-792.6551 297.7855-792.2098 297.7855-791.7086 297.7855-791.2446 297.6185-790.799 297.2475-789.1656 296.0595-787.7923 294.9273-786.6601 293.8694-785.5464 292.83-784.5814 291.7905-783.7832 290.7882-783.4306 290.3057-783.2449 289.6747-783.2449 288.8765-783.282 286.9092-783.7832 284.1622-784.7668 280.6359-785.7505 277.1093-787.0499 273.2304-788.7016 268.9985-790.3536 264.7854-792.1911 260.6278-794.2326 256.5445-796.2557 252.4612-798.3159 248.9349-800.4319 245.9095-801.6939 244.0721-802.8448 242.7727-803.8468 242.0118-804.8679 241.2507-806.631 240.861-809.1181 240.861H-814.8903C-817.5073 240.861-819.3076 241.2323-820.3099 241.9563-821.2935 242.68-822.4072 243.9978-823.6508 245.9095ZM-840.0025 289.0437V288.9879C-840.0025 288.9136-840.0025 288.8396-840.0025 288.7654ZM-783.2449 288.9879V288.7654 288.8765C-783.2449 288.9136-783.2449 288.9507-783.2449 288.9879ZM-750.835 239.5063C-756.9598 239.5063-762.2867 240.4899-766.8156 242.4572-771.3442 244.4431-774.8708 247.5057-777.3576 251.6817-779.8635 255.858-781.1254 261.2404-781.1254 267.8292-781.1254 277.7219-778.5828 285.2203-773.4971 290.2873-768.4302 295.3726-761.6928 297.8969-753.285 297.8969-747.8099 297.8969-743.1695 296.9133-739.3833 294.9644-735.5971 293.0156-732.7202 290.3057-730.7342 286.8721-728.767 283.4198-727.7831 279.485-727.7831 275.0678-727.7831 270.7432-728.8781 267.7365-731.0869 266.0289-733.2956 264.3398-736.5251 263.486-740.7754 263.486H-764.1057C-763.8086 259.7556-762.4352 256.8971-759.9852 254.9483-757.554 252.9811-754.213 252.0159-750.0183 252.0159-746.6774 252.0159-744.0049 252.4983-742.0003 253.5007-739.9772 254.503-738.5854 255.2825-737.7871 255.8764-737.1003 256.3775-736.3208 256.6188-735.4485 256.5816-734.7617 256.5816-733.7597 256.4331-732.479 256.1734-731.1983 255.8948-729.9176 255.3939-728.6369 254.67-727.746 254.2059-727.2819 253.5562-727.2819 252.7211-727.2819 252.2384-727.3749 251.5703-727.5603 250.698-727.6717 250.1969-727.8389 249.4545-728.0986 248.508-728.3585 247.5428-728.674 246.6519-729.0822 245.8168-729.305 245.4083-729.6392 245.0373-730.1217 244.6659-730.8456 244.1648-732.0149 243.4966-733.6295 242.6613-735.2257 241.8262-737.4345 241.0838-740.2184 240.4528-743.021 239.8218-746.5476 239.5063-750.835 239.5063ZM-764.1984 274.6222H-746.4733C-744.6359 274.6222-743.7078 275.476-743.7078 277.1836-743.7078 279.7637-744.5061 281.9166-746.1207 283.6797-747.7353 285.4429-750.1669 286.3154-753.3777 286.3154-756.9043 286.3154-759.4841 285.2016-761.1361 282.956-762.7878 280.6914-763.8086 277.926-764.1984 274.6222ZM-713.6552 239.7104C-714.416 239.3949-714.9543 239.2277-715.2885 239.2277-715.604 239.2277-715.9567 239.3578-716.3093 239.6174-717.1444 240.1929-718.0911 241.6221-719.1675 243.8864-720.2441 246.1507-720.7637 249.6402-720.7637 254.3545V317.3111C-720.7637 318.1833-720.5967 318.8514-720.2254 319.3342-718.7034 321.3201-716.4763 323.473-713.5438 325.7929-713.0239 326.1643-712.5786 326.3312-712.1889 326.3312-711.7064 326.3312-711.2608 326.1643-710.8155 325.7929-709.2564 324.6052-707.957 323.473-706.8807 322.4336-705.8041 321.3757-704.8947 320.3362-704.1336 319.3342-703.7626 318.8514-703.5953 318.1833-703.5953 317.3111V257.6582C-703.5953 255.2638-703.3912 253.2407-702.9831 251.5518-702.5933 249.863-702.1293 248.508-701.5723 247.487-700.96 246.2992-701.2012 245.4454-702.2775 244.9443Z" fill="#004288"/>
<path transform="matrix(1,0,0,-1,0,841.8898)" d="M-1111.6616 314.7812C-1116.4876 314.7812-1120.4824 315.1738-1123.6691 316.0049-1126.8327 316.813-1129.3958 317.7831-1131.3123 318.9376-1133.2288 320.0922-1134.7296 321.1313-1135.7921 322.0778-1136.6232 322.8401-1136.6926 323.6944-1136.069 324.6412L-1129.1647 334.8706C-1128.172 336.3021-1127.0404 336.3945-1125.7935 335.1478-1124.4773 333.8776-1122.7224 332.6539-1120.4824 331.4531-1118.2426 330.2524-1115.4716 329.652-1112.1233 329.652-1109.1447 329.652-1106.697 330.16-1104.7805 331.1759-1102.8637 332.1921-1101.9169 333.6698-1101.9169 335.6096-1101.9169 336.9719-1102.3328 338.0803-1103.1871 338.9346-1104.0415 339.789-1105.5654 340.6666-1107.7362 341.5671-1109.8834 342.4677-1112.9085 343.6223-1116.7877 345.0076-1122.5147 347.0859-1126.8556 349.6028-1129.7883 352.5355-1132.7207 355.468-1134.1755 359.7398-1134.1755 365.3742-1134.1755 370.5698-1132.744 374.7722-1129.8807 378.0283-1127.0175 381.2839-1123.3457 383.6625-1118.8661 385.1634-1114.3633 386.6873-1109.6989 387.4263-1104.8264 387.4263-1098.6381 387.4263-1094.2968 386.8492-1091.8029 385.7176-1089.286 384.5631-1087.6697 383.6625-1086.954 383.0391-1086.284 382.4388-1085.7994 381.7689-1085.5454 381.007-1084.945 379.2521-1084.5062 376.9197-1084.1828 374.0335-1083.9983 372.371-1084.4368 371.2626-1085.476 370.7314-1086.0072 370.4083-1086.8615 370.0619-1088.0391 369.7155-1089.2169 369.3458-1090.3944 369.0227-1091.549 368.7687-1092.7267 368.4915-1093.604 368.3529-1094.2044 368.3529-1094.3663 368.3529-1094.574 368.4223-1094.7819 368.5147-1094.9666 368.6301-1095.313 368.9303-1095.821 369.3691-1096.3981 369.9462-1097.4144 370.639-1098.8229 371.4009-1100.2544 372.1629-1102.1941 372.5555-1104.6881 372.5555-1107.1126 372.5555-1109.1677 372.1629-1110.8073 371.3547-1112.4468 370.5698-1113.278 369.1843-1113.278 367.1983-1113.278 365.0508-1112.2157 363.4115-1110.1375 362.3261-1108.0363 361.264-1104.5724 359.8554-1099.7465 358.1467-1095.9596 356.8303-1092.6575 355.3988-1089.8402 353.8517-1087.0231 352.2813-1084.8294 350.2494-1083.3056 347.7555-1081.7813 345.2615-1080.9965 341.8903-1080.9965 337.6414-1080.9965 332.1456-1082.4973 327.7123-1085.4992 324.341-1088.5011 320.9927-1092.3341 318.545-1096.9985 317.0441-1101.6629 315.5431-1106.5584 314.7812-1111.6616 314.7812ZM-1056.7243 314.8625C-1063.0313 314.8625-1068.0415 316.6206-1071.7554 320.1588-1075.4694 323.7188-1077.3372 328.5972-1077.3372 334.8164-1077.3372 338.0247-1076.7438 341.0354-1075.5573 343.8043-1074.3704 346.5734-1072.3269 349.0126-1069.382 351.1443-1066.4374 353.2538-1062.328 354.9679-1057.0099 356.2645-1051.7136 357.539-1044.9454 358.2862-1036.7045 358.5061-1036.7045 362.4177-1037.6714 365.2305-1039.6273 366.9446-1041.5829 368.6587-1044.5057 369.5159-1048.4172 369.5159-1051.9334 369.5159-1054.8123 368.9223-1057.0538 367.7136-1059.2734 366.5049-1060.6796 365.692-1061.229 365.2744-1061.8444 364.7472-1062.5695 364.5711-1063.4268 364.6811-1064.5914 364.8569-1065.822 365.1647-1067.1185 365.5823-1068.4373 366.0216-1069.8435 366.5049-1071.3379 367.0764-1071.5576 367.1643-1071.7994 367.2961-1072.0413 367.494-1072.3048 367.6918-1072.4588 367.9775-1072.5026 368.3511-1072.5026 368.5708-1072.4805 368.8345-1072.4367 369.1641-1072.3927 369.4938-1072.2827 370.0871-1072.1069 370.9443-1071.9533 371.8012-1071.6895 372.856-1071.3379 374.1307-1071.0082 375.3833-1070.6786 376.3721-1070.371 377.0532-1069.9974 377.7786-1069.338 378.4598-1068.4373 379.1191-1067.7118 379.7124-1065.5144 380.6793-1061.8226 381.998-1058.1304 383.3385-1052.7684 383.9975-1045.7804 383.9975-1026.5077 383.9975-1016.8824 374.614-1016.8824 355.8691V319.4334C-1016.8824 318.6204-1017.102 317.9171-1017.5417 317.3457-1018.0032 316.7524-1018.7722 316.4669-1019.8273 316.4669H-1029.4965C-1030.1777 316.4669-1030.7929 316.5548-1031.3203 316.7524-1031.8698 316.9502-1032.3751 317.3238-1032.8366 317.8953L-1036.8363 323.0376H-1037.2758C-1039.2537 320.1588-1041.9126 318.0711-1045.2308 316.7963-1048.571 315.4997-1052.3948 314.8625-1056.7243 314.8625ZM-1049.648 329.7841C-1045.6923 329.7841-1042.7037 330.7949-1040.7039 332.8166-1038.6823 334.8383-1037.3856 336.926-1036.8363 339.0576V346.2216C-1042.7916 346.2216-1047.2747 345.7602-1050.2631 344.8372-1053.2299 343.9142-1055.2297 342.7055-1056.2188 341.2332-1057.2075 339.7388-1057.691 338.1347-1057.691 336.4206-1057.691 333.9374-1056.9218 332.2012-1055.3837 331.2343-1053.8233 330.2674-1051.9115 329.7841-1049.648 329.7841ZM-946.7901 357.4732V319.873C-946.7901 318.5983-947.0537 317.6974-947.6031 317.2139-948.1306 316.7084-949.0535 316.4669-950.328 316.4669H-963.6012C-964.876 316.4669-965.7986 316.7084-966.3262 317.2139-966.8755 317.6974-967.1394 318.5983-967.1394 319.873V354.1329C-967.1394 358.8137-968.1282 362.2198-970.1059 364.3736-972.0839 366.5049-974.7649 367.5818-978.1492 367.5818-981.5332 367.5818-984.1484 366.8567-985.9723 365.4062-987.7963 363.9339-989.2026 362.088-990.1916 359.8685V319.873C-990.1916 318.5983-990.4552 317.6974-990.9828 317.2139-991.5321 316.7084-992.4333 316.4669-993.7298 316.4669H-1006.9809C-1008.2775 316.4669-1009.1786 316.7084-1009.728 317.2139-1010.2552 317.6974-1010.5191 318.5983-1010.5191 319.873V373.8229C-1010.5191 374.8558-1010.3213 375.647-1009.8816 376.2184-1008.9808 377.405-1007.9039 378.6355-1006.6294 379.8882-1005.3768 381.119-1003.8166 382.4595-1001.9707 383.8657-1001.3992 384.3054-1000.8717 384.5251-1000.3663 384.5251-999.883 384.5251-999.3555 384.3054-998.7401 383.8657-996.9381 382.4595-995.4 381.0969-994.1034 379.8224-992.8287 378.5258-991.686 377.2071-990.697 375.8227H-990.3674C-989.6423 376.7678-988.5654 377.8665-987.0931 379.1409-985.6426 380.4157-983.577 381.5365-980.9399 382.5252-978.3028 383.5142-974.9186 383.9975-970.8092 383.9975-966.7658 383.9975-962.9201 383.1846-959.2722 381.5583-955.6243 379.9321-952.6354 377.1853-950.3062 373.3174-947.9546 369.4499-946.7901 364.1757-946.7901 357.4732ZM-912.3857 314.8625C-926.7137 314.8625-933.878 322.3123-933.878 337.1896V367.3843H-941.1738C-942.4483 367.3843-943.3494 367.6697-943.8327 368.1972-944.3381 368.7248-944.5799 369.6477-944.5799 370.9443V378.8555C-944.5799 380.13-944.3381 381.0529-943.8327 381.5804-943.3494 382.1298-942.4483 382.3934-941.1738 382.3934H-933.878V392.766C-933.878 393.7986-933.6801 394.5898-933.2405 395.1391-931.4385 397.5126-928.8014 400.0618-925.3293 402.8088-924.7141 403.2261-924.1866 403.446-923.7251 403.446-923.1976 403.446-922.6922 403.2261-922.1649 402.8088-920.319 401.3804-918.7586 400.0618-917.5062 398.8091-916.2315 397.5565-915.1546 396.3478-914.2537 395.1391-913.8141 394.5898-913.6165 393.7986-913.6165 392.766V382.3934H-902.211C-900.9145 382.3934-900.0354 382.1298-899.53 381.5804-899.0467 381.0529-898.8049 380.13-898.8049 378.8555V370.9443C-898.8049 369.6477-899.0467 368.7248-899.53 368.1972-900.0354 367.6697-900.9145 367.3843-902.211 367.3843H-913.6165V340.7278C-913.6165 333.8714-911.1112 330.4431-906.1447 330.4431-905.3756 330.4431-904.6505 330.5092-904.013 330.6631-903.3758 330.8168-902.8043 330.9707-902.3428 331.1464-901.442 331.4979-900.8048 331.6079-900.4311 331.5421-900.0794 331.454-899.7497 330.9707-899.4421 330.1138L-895.7064 320.1367C-895.3328 319.0598-895.5746 318.2907-896.4754 317.8293-897.1347 317.5217-898.6731 316.9502-901.1563 316.1151-903.6176 315.2801-907.3534 314.8625-912.3857 314.8625" fill="#004288"/>
<path transform="matrix(1,0,0,-1,0,841.8898)" d="M-789.4525 314.8625C-794.0455 314.8625-797.847 315.2361-800.8798 316.0273-803.8905 316.7963-806.3297 317.7193-808.1538 318.8183-809.9776 319.917-811.406 320.9057-812.4168 321.8068-813.208 322.5319-813.274 323.3452-812.6807 324.246L-806.11 333.9814C-805.1649 335.3437-804.0881 335.4316-802.9015 334.245-801.6489 333.0363-799.9787 331.8715-797.847 330.7289-795.7154 329.5862-793.0783 329.0148-789.8919 329.0148-787.0572 329.0148-784.7277 329.4984-782.9036 330.4653-781.0798 331.4322-780.1787 332.8387-780.1787 334.6846-780.1787 335.9812-780.5744 337.036-781.3874 337.8489-782.2006 338.6622-783.6508 339.4973-785.7167 340.3542-787.7605 341.2111-790.6391 342.3101-794.3309 343.6285-799.7811 345.6062-803.9123 348.0018-806.7033 350.7925-809.494 353.5835-810.8787 357.6489-810.8787 363.011-810.8787 367.9554-809.5161 371.9551-806.7912 375.0537-804.0662 378.1522-800.572 380.4157-796.3089 381.8441-792.0235 383.2943-787.5845 383.9975-782.9476 383.9975-777.0583 383.9975-772.9268 383.4482-770.5536 382.3716-768.1581 381.2726-766.62 380.4157-765.9386 379.8224-765.3013 379.2509-764.8398 378.6137-764.598 377.8883-764.0269 376.2184-763.6093 373.9986-763.3015 371.2518-763.1257 369.6695-763.5433 368.6148-764.5323 368.1094-765.0377 367.8018-765.8507 367.4721-766.9715 367.1425-768.0923 366.7907-769.2129 366.4831-770.3118 366.2413-771.4327 365.9777-772.2677 365.8459-772.8389 365.8459-772.9929 365.8459-773.1904 365.9117-773.3883 365.9998-773.564 366.1095-773.8937 366.3952-774.3773 366.8128-774.9266 367.3621-775.8935 368.0215-777.234 368.7466-778.5967 369.472-780.4426 369.8453-782.8157 369.8453-785.1234 369.8453-787.0791 369.472-788.6395 368.7026-790.1997 367.9554-790.9909 366.637-790.9909 364.7472-790.9909 362.7034-789.9797 361.1429-788.002 360.1103-786.0022 359.0994-782.706 357.7589-778.1131 356.1327-774.5091 354.8801-771.3666 353.5174-768.6856 352.0451-766.0046 350.5507-763.9169 348.6169-762.4664 346.2437-761.0162 343.8703-760.269 340.6618-760.269 336.6184-760.269 331.3882-761.6974 327.1689-764.5541 323.9603-767.4109 320.7739-771.0591 318.4447-775.4981 317.0163-779.9372 315.5879-784.5959 314.8625-789.4525 314.8625" fill="#004288"/>
<path transform="matrix(1,0,0,-1,0,841.8898)" d="M-742.9714 342.2733C-736.3338 342.2733-730.9525 336.892-730.9525 330.2544-730.9525 323.6168-736.3338 318.2357-742.9714 318.2357-749.609 318.2357-754.9903 323.6168-754.9903 330.2544-754.9903 336.892-749.609 342.2733-742.9714 342.2733" fill="#004288" fill-rule="evenodd"/>
<path transform="matrix(1,0,0,-1,0,841.8898)" d="M-844.4279 319.4683C-844.367 319.5369-844.306 319.6057-844.2468 319.676-843.3984 320.6837-843.5307 320.4388-842.6032 321.7277-842.4808 321.8981-842.3348 322.0957-842.2211 322.2689-842.046 322.5351-841.966 322.7457-841.8268 322.7786-841.7282 323.0521-841.6817 323.0921-841.5315 323.3424-841.4955 323.4033-841.4476 323.5042-841.3923 323.5847-841.2625 323.7741-841.3639 323.6712-841.1828 323.799-841.2052 323.9575-841.2491 323.8744-841.1621 323.9563L-840.7185 324.6877C-840.6434 324.7846-840.6746 324.7526-840.5963 324.8223-840.5768 325.0522-839.8468 326.408-839.6745 326.7763-839.5254 327.0949-838.8848 328.6335-838.7878 328.7256L-838.3329 329.8226C-838.334 330.1971-837.7104 331.7134-837.5814 332.2553L-836.5575 331.871C-836.2185 331.7995-835.6218 331.6394-835.4126 331.395-835.0404 331.386-834.5974 331.1328-834.2453 330.9701-833.9587 330.838-833.3053 330.639-833.2002 330.4315-832.8963 330.3269-832.4657 330.1739-832.2968 329.9304-832.0629 329.9091-832.2588 329.9695-831.9977 329.8493-831.9501 329.8272-831.9101 329.8003-831.8701 329.7702-831.6006 329.5678-831.8614 329.8175-831.7908 329.6903-831.57 329.6103-831.2791 329.4774-831.037 329.3144-834.5319 324.9575-839.1382 321.5313-844.4279 319.4683ZM-827.4903 363.9563C-825.4134 359.8909-824.178 355.3234-824.0136 350.4844-826.5132 350.403-834.8292 350.0977-835.2777 350.2596-835.3083 351.455-835.3627 352.7396-835.4945 353.9061-835.5725 354.5986-835.9234 356.9014-835.8661 357.4134-836.0229 357.5846-836.0323 358.0191-836.0702 358.2947-836.1677 358.8154-836.5603 360.4056-836.5073 360.8014-836.6559 361.0174-836.6998 361.3351-836.8019 361.8612-836.8897 362.1903-837.0437 362.598-837.0995 362.9602-838.0414 362.7862-838.9789 362.5883-839.9106 362.3655L-839.886 362.2932C-839.6725 361.4057-838.866 358.3029-838.9474 357.4868-838.7796 357.3034-838.7782 356.8258-838.7345 356.5307-838.6948 356.1375-838.6237 355.964-838.6665 355.5632-838.4664 355.3313-838.4743 354.6198-838.4465 354.2632L-838.1529 350.1247-854.6613 349.7006-854.8081 356.1114C-855.7866 355.4853-856.7388 354.8239-857.6643 354.1286L-857.5458 349.6266-862.9673 349.4877C-863.9118 348.531-864.8212 347.5318-865.6957 346.4918L-857.4712 346.7035-857.2399 337.6772-858.2927 337.6806C-858.4614 337.5544-858.9322 337.5624-859.2089 337.5476-860.0734 337.5122-861.0341 337.3719-861.8817 337.2633-862.5875 337.1732-863.994 336.8727-864.6055 336.9027-864.7897 336.7335-865.2591 336.7352-865.5605 336.6558-866.1138 336.6105-866.8749 336.2729-867.3778 336.3525-867.5657 336.2114-867.5853 336.2199-867.9444 336.1689-868.3106 336.0197-869.8975 335.5767-870.2422 335.5906-870.2583 335.5775-870.2844 335.5812-870.2929 335.5557-870.3014 335.5305-870.3329 335.5291-870.3454 335.5228-870.6169 335.3882-870.2025 335.5724-870.4565 335.4684L-871.3154 335.2102-872.0649 334.9749C-872.1278 335.2414-872.2868 335.7969-872.4586 336.4243-873.4584 334.5565-874.3689 332.6391-875.1971 330.6849-875.1555 330.6983-875.1118 330.711-875.065 330.7235L-873.8283 331.285C-873.6701 330.5979-872.9807 329.3575-872.9705 328.9048-872.7517 328.7273-872.096 327.2173-871.9418 326.8743-871.5464 325.9647-870.9656 325.1602-870.5622 324.3081-870.3028 323.9484-869.7427 323.1499-869.6021 322.7615L-869.3881 322.5243C-869.2271 322.3012-868.8044 321.7912-868.7554 321.5639-868.6874 321.51-868.6964 321.5316-868.6057 321.4446-868.5085 321.3516-868.5213 321.3595-868.4578 321.2751-868.3835 321.1756-868.3211 321.0741-868.2389 320.9451-868.0371 320.739-867.6955 320.4439-867.6547 320.1857-867.6354 320.1732-867.6071 320.1775-867.5977 320.1477-867.5887 320.1191-867.5549 320.1197-867.5436 320.1103-867.5325 320.1015-867.5067 320.0839-867.4943 320.0732L-867.2831 319.8112C-867.0155 319.5848-866.7581 319.2956-866.5254 319.0314L-866.516 319.0209C-870.5134 320.3952-874.154 322.5368-877.2616 325.2694-877.6094 324.2509-877.9385 323.2253-878.2492 322.1949-872.2074 317.2615-864.491 314.3015-856.0823 314.3015-836.712 314.3015-821.0089 330.0043-821.0089 349.3752-821.0089 354.5864-822.147 359.5314-824.1857 363.9773-825.2881 363.9951-826.3902 363.9886-827.4903 363.9563ZM-824.0445 347.5599C-824.3734 341.6715-826.2884 336.2077-829.3711 331.5878L-831.0328 332.5799-833.2835 333.6608C-833.5672 333.7243-833.6526 333.7838-833.8912 333.887-834.1401 333.9944-834.2827 333.9896-834.4721 334.1906-834.6881 334.1854-836.5266 334.8666-836.7797 335.0319L-836.5907 335.9662C-836.475 336.5323-836.4937 336.5629-836.3477 336.7468-836.4098 337.0989-836.2281 337.9014-836.115 338.2608L-835.9761 339.0718-835.6479 341.5507C-835.6269 341.7956-835.6167 342.1996-835.4803 342.3623-835.5665 342.8861-835.4358 343.4176-835.4106 343.9511-835.4038 344.1453-835.3899 344.2969-835.3797 344.4936-835.3672 344.7431-835.3732 344.9381-835.2629 345.1547-835.3993 345.5104-835.2814 346.7727-835.2556 347.2654ZM-851.5709 317.6025C-852.3003 317.4996-853.0379 317.4214-853.782 317.3678L-854.25 334.84-849.4461 334.6557-848.3961 334.4888C-847.8952 334.6639-846.4938 334.3014-845.8835 334.258L-845.0484 334.0896C-845.0283 334.0823-845.0014 334.0681-844.9855 334.0616-844.969 334.0545-844.9424 334.0434-844.9226 334.031-844.5243 334.1052-844.0472 333.9139-843.6339 333.8623-843.5687 333.8484-843.4256 333.8266-843.3706 333.8073-843.1353 333.7262-843.2515 333.7685-843.1376 333.6905-842.6415 333.7931-840.8418 333.2392-840.2998 333.0938L-840.7154 331.8415C-840.784 331.4826-840.9339 331.1342-841.0507 330.7963L-841.4535 329.8652C-841.4881 329.5352-842.4643 327.3622-842.6237 327.2363-842.7523 326.7833-843.5248 325.2614-843.8326 325.0551-843.8715 324.8152-843.9248 324.7948-844.1011 324.504-844.2417 324.2727-844.3361 324.1449-844.4665 323.9501-844.7219 323.5677-844.95 323.2466-845.2318 322.8684-845.3611 322.6952-845.5 322.5124-845.6287 322.3409-845.7704 322.1521-845.9161 322.0254-846.0567 321.8454-847.3289 320.2243-849.3364 318.5626-851.258 317.7343ZM-856.7178 317.2929C-857.5492 317.3094-858.3732 317.357-859.1879 317.4352-859.3832 317.5424-859.2809 317.4925-859.3639 317.5668-859.612 317.5591-860.0389 317.7094-860.218 317.9075-860.2464 317.9143-860.2889 317.9477-860.3028 317.9268-860.3155 317.9072-860.3629 317.9418-860.3799 317.9523-860.523 318.0424-860.4337 317.9636-860.5315 318.0866-861.2243 318.1513-863.3954 319.9107-863.9045 320.4434-864.1383 320.6883-864.4028 320.8487-864.6358 321.0987-865.1455 321.6464-866.3176 322.9506-866.6334 323.5252L-866.7116 323.6842C-866.8145 323.7004-866.7386 323.6502-866.8431 323.7647-866.9254 323.8557-866.9424 323.905-867.0019 323.9943-867.134 324.1939-867.1864 324.237-867.2244 324.4433-867.2411 324.4561-867.2664 324.4972-867.2734 324.483-867.3304 324.3657-868.4626 326.3094-868.4773 326.3394-868.7234 326.7306-869.8586 328.8523-869.8924 329.2761-870.1149 329.4306-870.1727 329.7285-870.2901 329.9998L-870.3856 330.4117C-870.5477 330.5458-870.5307 330.5449-870.6093 330.7482-870.6781 330.9284-870.7088 331.0438-870.7524 331.2261L-871.1612 332.2168C-870.8871 332.4291-869.6889 332.7763-869.2999 332.7727-869.1593 332.9011-868.9054 332.9524-868.7412 332.9921-868.4932 333.0516-868.3461 333.0893-868.1026 333.1653-867.6884 333.2475-867.278 333.4232-866.8743 333.3847-866.7961 333.4487-866.8454 333.4224-866.7082 333.4799-866.6473 333.5051-866.5214 333.5414-866.4591 333.5567-866.2833 333.5992-866.1186 333.6287-865.9531 333.6664-865.3657 333.7424-864.4728 334.0352-863.911 333.9921-863.7026 334.1863-863.0864 334.1792-862.7553 334.2555L-857.1651 334.7651ZM-838.3927 343.1316-838.5491 342.2409C-838.4579 341.8415-838.5902 341.3704-838.6288 340.9634-838.6645 340.6717-838.6608 340.2179-838.8128 340.039-838.758 339.4834-839.1214 337.856-839.2501 337.2849-839.2946 337.0073-839.2558 336.9421-839.4202 336.7655-839.3893 336.479-839.4701 336.0994-839.5957 335.8854L-840.3735 336.0875-841.4935 336.3982C-841.9039 336.3364-843.3961 336.7587-843.948 336.8511-844.1113 336.8818-844.2496 336.8993-844.4049 336.9268-844.4441 336.9339-844.5606 336.9549-844.5988 336.9648L-844.7907 337.03C-844.8072 337.0357-844.8341 337.0462-844.8548 337.0561L-846.3937 337.2327C-846.7033 337.2701-847.203 337.2596-847.3952 337.4209-848.1161 337.3262-849.4617 337.621-850.3002 337.6196-850.6534 337.6301-850.4014 337.6003-850.4986 337.7075-850.8098 337.5989-853.6623 337.765-854.322 337.752L-854.5561 346.7874-838.1772 347.1976Z" fill="#004288" fill-rule="evenodd"/>
<path transform="matrix(1,0,0,-1,0,841.8898)" d="M-856.0826 384.9219C-843.6195 384.9219-832.6559 378.5066-826.31 368.799L-826.4903 368.7925C-822.0645 366.7164-818.174 367.0163-814.3997 365.2013L-822.634 365.7044C-866.9871 367.2638-878.345 331.0506-881.837 315.4414L-890.5238 315.5916C-889.7627 320.7084-888.296 325.7504-886.2642 330.5886-889.6643 336.0393-891.6293 342.4776-891.6293 349.3752-891.6293 369.0071-875.7145 384.9219-856.0826 384.9219ZM-833.9786 371.4279C-833.2671 371.4279-832.6919 370.8524-832.6919 370.1412-832.6919 369.43-833.2671 368.8546-833.9786 368.8546-834.6895 368.8546-835.2652 369.43-835.2652 370.1412-835.2652 370.8524-834.6895 371.4279-833.9786 371.4279" fill="#004288" fill-rule="evenodd"/>
<path transform="matrix(1,0,0,-1,0,841.8898)" d="M-827.7806 364.4566C-824.1554 364.282-818.3251 364.3894-813.7984 363.6697-817.9798 363.5203-822.7324 363.1728-826.8041 362.626Z" fill="#004288" fill-rule="evenodd"/>
<path transform="matrix(1,0,0,-1,0,841.8898)" d="M-1006.6419 267.7082H-994.0929L-983.1864 254.897-994.0929 242.3242H-1006.6419L-995.4825 255.0399Z" fill="#004288" fill-rule="evenodd"/>
<path transform="matrix(1,0,0,-1,0,841.8898)" d="M-1025.8475 267.7082H-1013.2985L-1002.3919 254.897-1013.2985 242.3242H-1025.8475L-1014.6881 255.0399Z" fill="#004288" fill-rule="evenodd"/>
<path transform="matrix(1,0,0,-1,0,841.8898)" d="M-1045.0531 267.7082H-1032.5042L-1021.5975 254.897-1032.5042 242.3242H-1045.0531L-1033.8939 255.0399Z" fill="#004288" fill-rule="evenodd"/>
<path transform="matrix(1,0,0,-1,0,841.8898)" d="M267.5959 408.183C265.7132 411.4389 249.2254 435.3015 246.8582 438.7062 243.301 443.8227 240.0041 448.85 236.4072 453.924 234.6687 456.3763 232.8568 458.9391 231.1546 461.5055 229.5147 463.9779 227.3769 466.619 226.0244 469.0729L277.7573 469.4511 295.634 437.1565C302.5746 445.7429 308.5223 456.4837 315.8025 465.7235L295.4191 425.6416C294.4746 427.0927 274.523 458.7568 273.4092 461.3581L240.0778 461.5135C241.086 459.4581 242.8413 456.9746 244.1041 454.9745 245.6028 452.6008 246.903 450.612 248.3714 448.2411 251.1709 443.721 254.0299 439.5251 256.8671 434.9653L271.8068 411.6297 273.9467 408.183C270.8654 400.7786 215.5164 321.1373 208.0054 313.446ZM294.9043 379.2813 274.7781 350.6655 284.5298 370.9293 295.1855 390.7522 314.466 359.6332C315.3597 358.151 316.5443 356.4581 317.2028 355.0428L350.441 354.8866C349.943 356.1103 349.107 357.2022 348.4304 358.3018 339.5818 372.6797 329.7569 387.1908 320.9335 401.3969 319.5128 403.6844 317.9268 405.8535 316.6356 408.183 317.0667 409.2959 323.5011 418.4317 324.7033 420.1384 327.5014 424.1098 330.1362 428.1616 332.9008 432.1086L349.3267 456.0216C356.8561 467.5181 366.3057 480.2366 374.0374 491.8167L382.5751 503.1493C382.6386 502.1124 360.0215 466.8976 358.0163 463.6029 350.1085 450.6111 340.9566 437.1866 333.0334 424.184L323.6743 409.4725C322.6547 407.8678 322.7984 408.3582 325.3561 404.6737 337.3064 387.4592 349.1558 369.3022 361.3014 352.15 362.0038 351.1582 364.1944 348.245 364.5354 347.315L313.0523 346.9541C312.2487 346.9541 312.0225 347.9057 311.6611 348.5792 311.3056 349.2414 310.9158 349.9245 310.5111 350.6363 309.7392 351.993 309.0294 353.414 308.2419 354.7857Z" fill="#09456e" fill-rule="evenodd"/>
<path transform="matrix(1,0,0,-1,0,841.8898)" d="M140.2812 473.2146C137.2751 473.2146 134.7868 473.459 132.8017 473.9769 130.8314 474.4803 129.2346 475.0843 128.0409 475.8035 126.847 476.5226 125.9121 477.1701 125.2505 477.7597 124.7326 478.2345 124.6895 478.7666 125.0779 479.3562L129.3786 485.7282C129.9971 486.6199 130.7018 486.6775 131.4785 485.9008 132.2983 485.1096 133.3916 484.3474 134.7868 483.5993 136.182 482.8516 137.9081 482.4774 139.9935 482.4774 141.8491 482.4774 143.3738 482.794 144.5675 483.4267 145.7614 484.0597 146.3511 484.9801 146.3511 486.1885 146.3511 487.0372 146.0923 487.7274 145.5599 488.2598 145.0278 488.7918 144.0785 489.3384 142.7264 489.8993 141.3887 490.4603 139.5045 491.1795 137.088 492.0426 133.5209 493.3372 130.8169 494.9048 128.9903 496.7317 127.1633 498.5583 126.2574 501.2192 126.2574 504.7288 126.2574 507.9651 127.1492 510.5829 128.9327 512.6111 130.7163 514.639 133.0033 516.1207 135.7937 517.0555 138.5983 518.0049 141.5038 518.4649 144.5389 518.4649 148.3937 518.4649 151.0977 518.1055 152.6511 517.4008 154.2189 516.6816 155.2258 516.1207 155.6717 515.732 156.0886 515.3581 156.3908 514.9412 156.549 514.4664 156.9229 513.3733 157.1961 511.9206 157.3977 510.1226 157.5128 509.0871 157.2395 508.3965 156.5921 508.0657 156.2613 507.8645 155.7292 507.6488 154.9956 507.433 154.262 507.2029 153.5284 507.0013 152.8092 506.8431 152.0756 506.6705 151.5291 506.5843 151.1552 506.5843 151.0546 506.5843 150.925 506.6274 150.7955 506.685 150.6804 506.757 150.4647 506.9438 150.1483 507.2173 149.7889 507.5768 149.1559 508.0082 148.2786 508.483 147.3868 508.9575 146.1784 509.2021 144.625 509.2021 143.1147 509.2021 141.8346 508.9575 140.8136 508.4541 139.7923 507.9651 139.2744 507.1022 139.2744 505.8652 139.2744 504.5275 139.936 503.5062 141.2306 502.8301 142.5393 502.1685 144.697 501.2912 147.7032 500.2268 150.0619 499.407 152.1187 498.5152 153.8736 497.5515 155.6286 496.5732 156.9949 495.3076 157.9442 493.7542 158.8935 492.2008 159.3825 490.1009 159.3825 487.4542 159.3825 484.0308 158.4476 481.2693 156.5779 479.1694 154.7079 477.0836 152.3203 475.5591 149.4147 474.624 146.5092 473.6891 143.46 473.2146 140.2812 473.2146ZM174.5016 473.2654C170.5731 473.2654 167.4522 474.3604 165.1388 476.5643 162.8254 478.7816 161.6618 481.8206 161.6618 485.6944 161.6618 487.6929 162.0315 489.5683 162.7705 491.2931 163.5097 493.0177 164.7828 494.5371 166.6171 495.8651 168.4514 497.179 171.0111 498.2468 174.3236 499.0544 177.6226 499.8484 181.8388 500.3138 186.9718 500.4507 186.9718 502.8871 186.3697 504.6392 185.1514 505.707 183.9331 506.7748 182.1124 507.3086 179.676 507.3086 177.4857 507.3086 175.6925 506.939 174.2964 506.1861 172.9137 505.4332 172.0378 504.9266 171.6956 504.6667 171.3124 504.3382 170.8605 504.2288 170.3268 504.2971 169.6011 504.4068 168.8346 504.5984 168.027 504.8583 167.2058 505.1322 166.3296 505.4332 165.3987 505.7892 165.2618 505.8439 165.1113 505.9261 164.9608 506.0492 164.7964 506.1725 164.7006 506.3505 164.6734 506.5832 164.6734 506.7198 164.687 506.8843 164.7145 507.0895 164.7417 507.295 164.8103 507.6643 164.9197 508.1984 165.0155 508.7322 165.1799 509.3892 165.3987 510.1832 165.6043 510.9633 165.8095 511.5793 166.0011 512.0036 166.2338 512.4555 166.6443 512.8798 167.2058 513.2906 167.6574 513.6602 169.0262 514.2623 171.326 515.0837 173.6257 515.9186 176.9655 516.3293 181.3184 516.3293 193.3234 516.3293 199.319 510.4843 199.319 498.8081V476.1125C199.319 475.6059 199.182 475.168 198.9082 474.8119 198.6208 474.4426 198.1417 474.2646 197.4847 474.2646H191.4616C191.0373 474.2646 190.654 474.3193 190.3258 474.4426 189.9833 474.5656 189.6684 474.7983 189.381 475.1544L186.8899 478.3575H186.6161C185.3841 476.5643 183.7278 475.2638 181.6608 474.4698 179.5802 473.6622 177.1982 473.2654 174.5016 473.2654ZM178.9095 482.5596C181.3734 482.5596 183.2349 483.1894 184.4807 484.4486 185.7399 485.708 186.5475 487.0086 186.8899 488.3363V492.7986C183.1802 492.7986 180.3878 492.5112 178.526 491.9363 176.6781 491.3614 175.4325 490.6086 174.8166 489.6916 174.2006 488.7607 173.8993 487.7614 173.8993 486.6936 173.8993 485.1468 174.3786 484.0654 175.3367 483.4633 176.3084 482.8609 177.4996 482.5596 178.9095 482.5596ZM242.9793 499.8073V476.3863C242.9793 475.5923 242.8152 475.0311 242.473 474.73 242.1445 474.4151 241.5696 474.2646 240.7757 474.2646H232.5078C231.7139 474.2646 231.139 474.4151 230.8102 474.73 230.468 475.0311 230.3039 475.5923 230.3039 476.3863V497.7266C230.3039 500.6424 229.6879 502.7641 228.456 504.1054 227.2241 505.4332 225.5539 506.1039 223.4458 506.1039 221.3379 506.1039 219.7089 505.6523 218.5727 504.7489 217.4366 503.8316 216.5607 502.6819 215.9444 501.2994V476.3863C215.9444 475.5923 215.7803 475.0311 215.4518 474.73 215.1096 474.4151 214.5484 474.2646 213.7408 474.2646H205.4866C204.679 474.2646 204.1177 474.4151 203.7756 474.73 203.4471 475.0311 203.2826 475.5923 203.2826 476.3863V509.9916C203.2826 510.6351 203.406 511.1277 203.6798 511.4835 204.2408 512.2227 204.9117 512.9892 205.7057 513.7696 206.4858 514.5361 207.4578 515.3712 208.6075 516.2471 208.9636 516.5209 209.2921 516.6578 209.6067 516.6578 209.9081 516.6578 210.2366 516.5209 210.6198 516.2471 211.7424 515.3712 212.7005 514.5225 213.5081 513.7285 214.302 512.9209 215.0138 512.0997 215.6298 511.2371H215.835C216.2869 511.8259 216.9575 512.5102 217.8746 513.3042 218.778 514.0981 220.0649 514.7963 221.7076 515.4123 223.3502 516.0283 225.4581 516.3293 228.018 516.3293 230.5366 516.3293 232.9322 515.8227 235.2044 514.8099 237.4767 513.7968 239.3382 512.0858 240.7893 509.6767 242.2539 507.2675 242.9793 503.9824 242.9793 499.8073ZM264.4098 473.2654C255.4849 473.2654 251.0223 477.9057 251.0223 487.1727V505.9809H246.4778C245.6838 505.9809 245.1226 506.1589 244.8215 506.4874 244.5066 506.8157 244.3561 507.3908 244.3561 508.1984V513.1261C244.3561 513.9201 244.5066 514.495 244.8215 514.8235 245.1226 515.1657 245.6838 515.3301 246.4778 515.3301H251.0223V521.7911C251.0223 522.4343 251.1456 522.9272 251.4192 523.2694 252.5417 524.7476 254.1844 526.3356 256.3472 528.0466 256.7305 528.3068 257.059 528.4437 257.3464 528.4437 257.675 528.4437 257.9899 528.3068 258.3184 528.0466 259.4682 527.1571 260.4402 526.3356 261.2203 525.5555 262.0142 524.7751 262.6849 524.0222 263.2462 523.2694 263.52 522.9272 263.6433 522.4343 263.6433 521.7911V515.3301H270.7475C271.5551 515.3301 272.1027 515.1657 272.4177 514.8235 272.7187 514.495 272.8692 513.9201 272.8692 513.1261V508.1984C272.8692 507.3908 272.7187 506.8157 272.4177 506.4874 272.1027 506.1589 271.5551 505.9809 270.7475 505.9809H263.6433V489.3766C263.6433 485.1057 265.2038 482.9703 268.2972 482.9703 268.7763 482.9703 269.2281 483.0114 269.625 483.1072 270.0221 483.2031 270.3779 483.2989 270.6653 483.4086 271.2266 483.6274 271.6237 483.6957 271.8564 483.6549 272.0752 483.6002 272.2808 483.2989 272.4724 482.7651L274.7993 476.5504C275.0321 475.8797 274.8815 475.4007 274.3203 475.1133 273.9095 474.9216 272.9514 474.5656 271.4046 474.0454 269.8716 473.5253 267.5443 473.2654 264.4098 473.2654ZM340.9846 473.2654C338.1236 473.2654 335.7556 473.4981 333.8666 473.9907 331.9911 474.4698 330.4718 475.0447 329.3357 475.7292 328.1995 476.4135 327.3097 477.0295 326.6802 477.5907 326.1875 478.0426 326.1464 478.5489 326.516 479.1101L330.6087 485.1743C331.1974 486.023 331.8681 486.0777 332.6074 485.3384 333.3875 484.5858 334.4278 483.8601 335.7556 483.1483 337.0833 482.4366 338.726 482.0805 340.7108 482.0805 342.4768 482.0805 343.9278 482.3819 345.0637 482.9842 346.2001 483.5863 346.7611 484.4625 346.7611 485.6122 346.7611 486.4198 346.5147 487.0769 346.0085 487.5834 345.5019 488.09 344.5985 488.6101 343.3116 489.1439 342.0386 489.6777 340.2454 490.3622 337.9459 491.1834 334.5511 492.4154 331.9775 493.9075 330.2391 495.646 328.5009 497.3842 327.6383 499.9167 327.6383 503.2568 327.6383 506.3366 328.487 508.828 330.1843 510.7581 331.8817 512.6882 334.0582 514.0981 336.714 514.9879 339.3831 515.8913 342.1483 516.3293 345.0365 516.3293 348.7051 516.3293 351.2784 515.9871 352.7569 515.3165 354.2488 514.6319 355.2069 514.0981 355.6312 513.7285 356.0284 513.3725 356.3158 512.9756 356.4663 512.5241 356.8224 511.4835 357.0823 510.101 357.2739 508.39 357.3836 507.4044 357.1234 506.7473 356.5074 506.4324 356.1925 506.2408 355.6862 506.0356 354.9881 505.8303 354.2899 505.6112 353.5917 505.4196 352.9074 505.2691 352.2093 505.1047 351.6891 505.0225 351.3331 505.0225 351.2373 505.0225 351.1142 505.0636 350.9909 505.1183 350.8815 505.1869 350.6763 505.3649 350.375 505.6248 350.0328 505.9672 349.4305 506.3777 348.5954 506.8295 347.7467 507.2811 346.5969 507.5138 345.1187 507.5138 343.6812 507.5138 342.4629 507.2811 341.4912 506.802 340.5192 506.3366 340.0265 505.5154 340.0265 504.3382 340.0265 503.0651 340.6561 502.0931 341.888 501.45 343.1339 500.8201 345.187 499.9853 348.048 498.9722 350.2928 498.1921 352.2504 497.3434 353.9203 496.4261 355.5904 495.4952 356.8907 494.2908 357.7941 492.8125 358.6978 491.3342 359.1629 489.3355 359.1629 486.8169 359.1629 483.5591 358.2734 480.9308 356.4938 478.9324 354.7142 476.9476 352.442 475.4965 349.6768 474.6067 346.9119 473.7169 344.0098 473.2654 340.9846 473.2654ZM306.7407 476.134C306.7787 476.1768 306.8164 476.2199 306.8532 476.2636 307.3819 476.8911 307.2994 476.7386 307.8771 477.5417 307.9534 477.6477 308.0443 477.7707 308.1152 477.8787 308.2243 478.0443 308.2742 478.1755 308.3607 478.1959 308.4222 478.3663 308.4511 478.3915 308.5447 478.5474 308.5673 478.5851 308.5971 478.6481 308.6314 478.6982 308.7125 478.8162 308.649 478.7521 308.7621 478.8317 308.7479 478.9304 308.7204 478.8788 308.7748 478.9295L309.0512 479.3851C309.098 479.4457 309.0784 479.4256 309.1272 479.469 309.1394 479.6124 309.594 480.4569 309.7015 480.6862 309.7942 480.8846 310.1933 481.843 310.2537 481.9005L310.5371 482.5837C310.5366 482.8173 310.9249 483.7615 311.0051 484.0991L311.6429 483.8596C311.8541 483.8153 312.226 483.7156 312.3561 483.5633 312.588 483.5577 312.8641 483.4001 313.0832 483.2986 313.2618 483.2164 313.6689 483.0922 313.7343 482.963 313.9237 482.8978 314.1918 482.8025 314.297 482.6509 314.4427 482.6375 314.3205 482.6752 314.4832 482.6004 314.513 482.5865 314.5377 482.5698 314.5629 482.5511 314.7307 482.4252 314.5683 482.5806 314.6122 482.5012 314.7497 482.4516 314.9308 482.3688 315.0816 482.2673 312.9049 479.5534 310.0354 477.4192 306.7407 476.134ZM317.488 503.4492C318.6626 501.0177 319.3594 498.312 319.4566 495.4538 317.8996 495.4034 312.7195 495.2132 312.4403 495.3141 312.421 496.0585 312.3873 496.8587 312.3054 497.5855 312.2566 498.0166 312.0381 499.451 312.0735 499.7699 311.976 499.8767 311.9703 500.1474 311.9465 500.3189 311.8859 500.6435 311.6412 501.6339 311.6741 501.8803 311.5817 502.0149 311.5545 502.213 311.491 502.5404 311.436 502.7457 311.3402 502.9994 311.3056 503.225 310.7186 503.1167 310.1349 502.9934 309.5544 502.8548L309.5697 502.8097C309.7026 502.2567 310.2052 500.324 310.1545 499.8158 310.2588 499.7015 310.2596 499.4039 310.2871 499.2202 310.3115 498.9753 310.356 498.8673 310.3294 498.6176 310.4541 498.4733 310.449 498.03 310.4666 497.8077L310.6494 495.2299 300.3661 494.9657 300.2746 498.9591C299.6651 498.5691 299.0721 498.1569 298.4956 497.7238L298.5695 494.9198 295.1923 494.833C294.6042 494.2372 294.0378 493.6147 293.493 492.967L298.616 493.0988 298.76 487.4766 298.1041 487.4786C297.9992 487.4 297.7058 487.4049 297.5335 487.3958 296.9949 487.3737 296.3968 487.2861 295.8687 487.2186 295.429 487.1625 294.5529 486.9754 294.1722 486.9938 294.0574 486.8884 293.7648 486.8895 293.5772 486.8402 293.2325 486.8121 292.7582 486.6015 292.445 486.6514 292.3279 486.5632 292.3157 486.5686 292.0921 486.5369 291.8642 486.4439 290.8757 486.1678 290.6609 486.1766 290.651 486.1687 290.6345 486.1706 290.6291 486.1551 290.624 486.1392 290.6045 486.1383 290.5965 486.1344 290.4273 486.0505 290.6855 486.1653 290.5274 486.1003L289.9925 485.9399 289.5256 485.7931C289.4865 485.9589 289.3873 486.3053 289.2804 486.6959 288.6576 485.5326 288.0904 484.3383 287.5745 483.1211 287.6003 483.1294 287.6278 483.1373 287.6567 483.1449L288.4272 483.4947C288.5255 483.0667 288.955 482.2943 288.9615 482.0122 289.0979 481.9014 289.506 480.9609 289.6021 480.7474 289.8485 480.1808 290.2105 479.6796 290.4616 479.1489 290.6232 478.9247 290.9718 478.4275 291.0597 478.1854L291.1929 478.0378C291.2933 477.8989 291.5566 477.5811 291.5872 477.4397 291.6295 477.4059 291.6238 477.4192 291.6802 477.3654 291.7409 477.3073 291.7329 477.3121 291.7723 477.2594 291.8188 477.1976 291.8577 477.1344 291.9087 477.0539 292.0346 476.9257 292.2471 476.7418 292.2727 476.581 292.2846 476.5731 292.3024 476.5759 292.3081 476.5572 292.3138 476.5397 292.335 476.5399 292.3418 476.534 292.3486 476.5286 292.3648 476.5175 292.3727 476.511L292.504 476.3477C292.6706 476.2066 292.8311 476.0266 292.9762 475.8619L292.9819 475.8554C290.4919 476.7114 288.2242 478.0454 286.2884 479.7476 286.0719 479.1129 285.8669 478.4743 285.6733 477.8325 289.4369 474.7595 294.2433 472.9158 299.4809 472.9158 311.5468 472.9158 321.3283 482.6971 321.3283 494.763 321.3283 497.7703 320.7197 500.6347 319.6205 503.242 321.6648 503.4549 323.8444 503.5963 325.8196 503.6672 322.9999 504.1154 319.3682 504.0485 317.1101 504.1573ZM319.4374 493.6323C319.2327 489.9645 318.0396 486.561 316.1194 483.6835L315.0845 484.3012 313.6825 484.9744C313.5056 485.0141 313.4523 485.0512 313.3037 485.1156 313.1487 485.1825 313.06 485.1794 312.942 485.3047 312.8074 485.3013 311.6622 485.7256 311.5046 485.8285L311.6222 486.4107C311.6945 486.7631 311.6829 486.7824 311.7736 486.8969 311.7351 487.1163 311.8482 487.616 311.9187 487.84L312.0052 488.3451 312.2096 489.8891C312.2226 490.0419 312.2291 490.2934 312.3139 490.3946 312.2603 490.7211 312.3417 491.0522 312.3573 491.3844 312.3618 491.5054 312.3703 491.5998 312.3765 491.7223 312.3845 491.8779 312.3808 491.9992 312.4494 492.1342 312.3646 492.3556 312.4378 493.1422 312.4542 493.4489ZM302.2911 474.9718C301.8368 474.9077 301.3775 474.859 300.9141 474.8258L300.6224 485.7092 303.6149 485.5944 304.2686 485.4903C304.5807 485.5995 305.4538 485.3738 305.8339 485.3466L306.354 485.2417C306.3665 485.2372 306.3832 485.2281 306.3932 485.2242 306.4034 485.2199 306.4201 485.2128 306.4323 485.2052 306.6806 485.2514 306.9777 485.132 307.2351 485.1 307.2756 485.0915 307.3649 485.0779 307.3992 485.0657 307.5457 485.0152 307.4734 485.0416 307.5443 484.9931 307.8533 485.0569 308.9744 484.7122 309.3117 484.6215L309.0532 483.8414C309.0104 483.6178 308.9169 483.4009 308.8443 483.1903L308.5934 482.6103C308.5716 482.4048 307.9636 481.0513 307.8643 480.9728 307.7844 480.6907 307.3031 479.7425 307.1115 479.6141 307.0871 479.4647 307.0539 479.452 306.9442 479.2708 306.8566 479.1268 306.7977 479.0472 306.7166 478.9259 306.5576 478.6877 306.4153 478.4876 306.2398 478.2521 306.1593 478.1441 306.0729 478.0301 305.9926 477.9232 305.9042 477.8059 305.8135 477.7268 305.7259 477.6148 304.9336 476.6051 303.683 475.5699 302.4862 475.054ZM299.0852 474.7791C298.5673 474.7893 298.0542 474.819 297.5465 474.8678 297.4249 474.9344 297.4887 474.9035 297.4371 474.9497 297.2823 474.9449 297.0167 475.0384 296.905 475.1617 296.8875 475.166 296.8608 475.187 296.852 475.1739 296.8441 475.1617 296.8146 475.1833 296.8041 475.1898 296.7151 475.2459 296.7707 475.1969 296.7097 475.2734 296.278 475.3137 294.9259 476.4098 294.6087 476.7415 294.463 476.894 294.2983 476.9938 294.1532 477.1497 293.8357 477.4907 293.1055 478.3034 292.9088 478.6611L292.8603 478.76C292.7959 478.7702 292.8433 478.7391 292.7781 478.8105 292.7271 478.8669 292.7163 478.8978 292.6791 478.9534 292.5969 479.0775 292.5643 479.1044 292.5405 479.2331 292.5303 479.2411 292.5145 479.2666 292.5102 479.2578 292.4745 479.1847 291.7695 480.3953 291.7602 480.4143 291.6071 480.6578 290.8998 481.9793 290.8789 482.2435 290.7403 482.3396 290.704 482.5253 290.6311 482.6942L290.5716 482.9508C290.4704 483.0344 290.4809 483.0338 290.4321 483.1603 290.3893 483.2725 290.3703 483.3445 290.3431 483.4582L290.0886 484.075C290.2592 484.2074 291.0056 484.4237 291.2479 484.4214 291.3352 484.5013 291.4937 484.5334 291.596 484.558 291.7502 484.5951 291.8421 484.6187 291.9937 484.6657 292.2517 484.717 292.5074 484.8267 292.7588 484.8026 292.8076 484.8423 292.7767 484.8262 292.8623 484.8619 292.9003 484.8778 292.9785 484.9002 293.0173 484.9098 293.127 484.9364 293.2296 484.9546 293.3325 484.9781 293.6985 485.0254 294.2546 485.2077 294.6047 485.1811 294.7346 485.3018 295.1181 485.2973 295.3244 485.3449L298.8068 485.6624ZM310.5 490.8739 310.4025 490.3191C310.4595 490.0703 310.377 489.7769 310.3529 489.5235 310.3305 489.3415 310.333 489.0589 310.2384 488.9477 310.2724 488.6014 310.0459 487.5877 309.9657 487.2322 309.9382 487.0593 309.9623 487.0185 309.8599 486.9085 309.8792 486.7299 309.8288 486.4935 309.7505 486.3603L309.2661 486.4861 308.5685 486.6797C308.3128 486.6412 307.3833 486.9043 307.0395 486.9621 306.9377 486.9808 306.8518 486.9918 306.7549 487.0091 306.7305 487.0134 306.6579 487.0264 306.6341 487.0327L306.5148 487.0732C306.5043 487.0766 306.4876 487.0834 306.4748 487.0896L305.5161 487.1996C305.3234 487.2229 305.0118 487.2163 304.8922 487.3167 304.4432 487.2577 303.605 487.4414 303.0826 487.4406 302.8629 487.4471 303.0197 487.4287 302.9593 487.4953 302.7654 487.4275 300.9886 487.531 300.5776 487.5231L300.4316 493.151 310.6341 493.4066ZM313.2496 508.4997C313.6927 508.4997 314.051 508.1411 314.051 507.6984 314.051 507.2553 313.6927 506.8967 313.2496 506.8967 312.8066 506.8967 312.448 507.2553 312.448 507.6984 312.448 508.1411 312.8066 508.4997 313.2496 508.4997ZM278.0459 473.7348 283.426 473.6418C285.0055 480.6964 287.7111 487.6515 292.3203 493.3003 295.2964 496.9477 298.9216 499.8461 303.1977 501.8338 308.562 504.3274 314.4402 505.1568 320.3167 504.9502L325.3649 504.6418C324.7656 504.9227 324.1426 505.1271 323.5017 505.2923 322.6096 505.5222 321.6988 505.6773 320.8011 505.8839 319.7979 506.1146 318.8415 506.4055 317.9072 506.8437L317.8483 506.8715 317.9979 506.8769C313.9027 513.1239 306.9717 516.8894 299.4809 516.8894 287.261 516.8894 277.3545 506.9829 277.3545 494.763 277.3545 490.6179 278.5 486.5868 280.6943 483.0693L280.6985 483.0625 280.6954 483.0548C279.4422 480.0708 278.5241 476.9379 278.0459 473.7348" fill="#09456e"/>
<path transform="matrix(1,0,0,-1,0,841.8898)" d="M128.649 365.9854V451.4383H137.7964L138.3826 446.4901C142.5818 449.778 147.4648 451.4383 153.0641 451.4383 159.8026 451.4383 165.532 449.0291 170.2196 444.1788 175.0703 439.4911 177.4791 433.7617 177.4791 427.0232V365.9854H165.2717V427.0232C165.2717 430.3434 164.067 433.1758 161.6581 435.6173 159.2167 438.0262 156.3846 439.2306 153.0641 439.2306 149.646 439.2306 146.7162 438.0262 144.2747 435.6173 141.9959 433.1758 140.8567 430.3434 140.8567 427.0232V365.9854ZM201.8945 411.7555 214.1019 414.8155 226.3096 416.3457V427.0232C226.3096 430.3434 225.1049 433.1758 222.696 435.6173 220.2545 438.0262 217.4224 439.2306 214.1019 439.2306 210.6839 439.2306 207.754 438.0262 205.3125 435.6173 203.0338 433.1758 201.8945 430.3434 201.8945 427.0232ZM214.1019 365.9854C207.233 365.9854 201.4387 368.3293 196.7511 373.0496 192.0308 377.7372 189.6868 383.5315 189.6868 390.4004V427.0232C189.6868 433.7617 192.0308 439.4911 196.7511 444.1788 201.4387 449.0291 207.233 451.4383 214.1019 451.4383 220.8404 451.4383 226.5698 449.0291 231.2575 444.1788 236.1081 439.4911 238.517 433.7617 238.517 427.0232V408.7281L201.8945 399.5478V390.4004C201.8945 386.9824 203.0338 384.0525 205.3125 381.6111 207.754 379.3323 210.6839 378.193 214.1019 378.193 217.4224 378.193 220.2545 379.3323 222.696 381.6111 225.1049 384.0525 226.3096 386.9824 226.3096 390.4004H238.517C238.517 383.5315 236.1081 377.7372 231.2575 373.0496 226.5698 368.3293 220.8404 365.9854 214.1019 365.9854ZM385.0081 365.9854C378.1392 365.9854 372.3449 368.3293 367.6572 373.0496 362.937 377.7372 360.593 383.5315 360.593 390.4004V451.4383H372.8007V390.4004C372.8007 386.9824 373.9399 384.0525 376.2187 381.6111 378.6602 379.3323 381.5901 378.193 385.0081 378.193H397.2158V451.4383H409.4232V365.9854ZM446.046 365.9854C439.177 365.9854 433.3827 368.3293 428.6951 373.0496 423.9748 377.7372 421.6309 383.5315 421.6309 390.4004H433.8386C433.8386 386.9824 434.9778 384.0525 437.2566 381.6111 439.698 379.3323 442.6279 378.193 446.046 378.193 449.3665 378.193 452.1986 379.3323 454.64 381.6111 457.0489 384.0525 458.2536 386.9824 458.2536 390.4004 458.2536 393.7209 457.0489 396.553 454.64 398.9945 452.1986 401.4034 449.3665 402.6081 446.046 402.6081 439.177 402.6081 433.3827 404.9518 428.6951 409.6721 423.9748 414.3597 421.6309 420.1543 421.6309 427.0232 421.6309 433.7617 423.9748 439.4911 428.6951 444.1788 433.3827 449.0291 439.177 451.4383 446.046 451.4383 452.7845 451.4383 458.5139 449.0291 463.2015 444.1788 468.0522 439.4911 470.461 433.7617 470.461 427.0232H458.2536C458.2536 430.3434 457.0489 433.1758 454.64 435.6173 452.1986 438.0262 449.3665 439.2306 446.046 439.2306 442.6279 439.2306 439.698 438.0262 437.2566 435.6173 434.9778 433.1758 433.8386 430.3434 433.8386 427.0232 433.8386 423.6049 434.9778 420.675 437.2566 418.2335 439.698 415.9548 442.6279 414.8155 446.046 414.8155 452.7845 414.8155 458.5139 412.4066 463.2015 407.556 468.0522 402.8683 470.461 397.139 470.461 390.4004 470.461 383.5315 468.0522 377.7372 463.2015 373.0496 458.5139 368.3293 452.7845 365.9854 446.046 365.9854" fill="#09456e"/>
</g>

</svg>